<?xml version="1.0" encoding="utf-8"?>
<!-- Generator: Adobe Illustrator 19.2.1, SVG Export Plug-In . SVG Version: 6.00 Build 0)  -->
<svg version="1.1" id="Isolation_Mode" xmlns="http://www.w3.org/2000/svg" xmlns:xlink="http://www.w3.org/1999/xlink" x="0px"
	 y="0px" viewBox="0 0 112 112" style="enable-background:new 0 0 112 112;" xml:space="preserve">
<style type="text/css">
	.st0{fill:#F79138;}
	.st1{fill:#FFFFFF;}
</style>
<g>
	<circle id="XMLID_60_" class="st0" cx="56" cy="56" r="56"/>
	<path class="st1" d="M89,50.6l-0.6-1.2l-0.9-0.7c-1.2-1-7.4,0.1-9.1-1.4c-1.2-1.1-1.4-3-1.7-5.7c-0.7-5.1-1.1-5.4-1.9-7.1
		C71.9,28.3,64,23.6,58.6,23H43.9c-11.6,0-21,9.4-21,21v10.2v14.2c0,11.5,9.5,20.9,21,20.9H68c11.6,0,21-9.4,21-20.9l0.1-13.9l0-3
		L89,50.6z M44.1,40.1h11.7c2.2,0,4,1.8,4,4c0,2.2-1.8,4-4,4H44.1c-2.2,0-4-1.8-4-4C40.1,41.9,41.9,40.1,44.1,40.1z M67.8,72.1H44.1
		c-2.2,0-4-1.8-4-4c0-2.2,1.8-4,4-4h23.7c2.2,0,4,1.8,4,4C71.8,70.3,70,72.1,67.8,72.1z"/>
</g>
</svg>
