<?xml version="1.0" encoding="utf-8"?>
<!-- Generator: Adobe Illustrator 19.2.1, SVG Export Plug-In . SVG Version: 6.00 Build 0)  -->
<svg version="1.1" id="Layer_1" xmlns="http://www.w3.org/2000/svg" xmlns:xlink="http://www.w3.org/1999/xlink" x="0px" y="0px"
	 viewBox="0 0 70.8 53.8" style="enable-background:new 0 0 70.8 53.8;" xml:space="preserve">
<style type="text/css">
	.st0{fill:#FFFFFF;}
</style>
<g>
	<g>
		<path class="st0" d="M32.1,24h-6.3c-0.1,0-0.2-0.1-0.3-0.1l-6.6-9.6c-0.7-1-1.8-1.8-3.1-2.2c-2.6-0.8-5.3,0.2-6.9,2.2l-8.3,7.6
			C0.2,22.3,0,22.8,0,23.4v7.9c0,1,0.7,2,1.7,2.1c1.3,0.2,2.4-0.8,2.4-2v-6.9c0-0.1,0-0.2,0.1-0.3l1.4-1.3c0.3-0.3,0.8,0,0.7,0.4
			c-0.4,2.5-0.7,5.5-0.7,8.8c0,0.3,0,0.7,0.1-2.6V48c0,4.6,0.7,5.6,1.7,5.7c1.3,0.2,2.4-0.8,2.4-2V34.9c0-0.3,0.3-0.5,0.5-0.4
			c0.4,0.1,0.9,0.2,1.4,0.2l0,0c0.5,0,1-0.1,1.5-0.2c0.3-0.1,0.5,0.1,0.5,0.4v16.8c0,1,0.7,2,1.7,2.1c1.3,0.2,2.4-0.8,2.4-5.6v-19
			c0,3.4,0,3.1,0.1,2.9c0-4.4-0.3-8.1,0.1-10.3c0.1-0.3,0.5-0.4,0.7-0.2l4.2,5.8c0.4,0.4,0.9,0.7,1.5,0.7h7.5c1.3,0,2.2-1.1,2-2.4
			C34,24.7,33.1,24,32.1,24z"/>
		<circle class="st0" cx="17.7" cy="4.7" r="4.7"/>
	</g>
	<g>
		<circle class="st0" cx="52.1" cy="4.7" r="4.7"/>
		<path class="st0" d="M70.1,35.6h-0.9c-0.2,0-0.4-0.2-0.4-0.4v-1.8c0-0.1,0.1-0.3,0.2-0.4c0.5-0.4,0.8-1.1,0.8-1.8v-7.9
			c0-0.6-0.2-1.1-0.6-1.5L61,14.1c-1.5-2.1-4.3-3.1-6.9-2.2c-1.3,0.4-2.4,1.2-3.1,2.2l-6.6,9.6c-0.1,0.1-0.2,0.1-0.3,0.1h-6.3
			c-1,0-2.1,0.8-2.2,1.8c-0.1,1.2,0.8,2.3,2.1,2.3h7.5c0.6,0,1.1-0.2,1.5-0.7l4.2-5.8c0.2-0.3,0.7-0.2,0.7,0.2
			c0.5,2.2,0.1,5.9,0.1,10.3c0,0.2,0,0.5,0.1-2.9v18.9c0,4.8,1,5.8,2.3,5.7c1-0.1,1.8-1.1,1.8-2.2V34.6c0-0.3,0.3-0.5,0.5-0.4
			c0.5,0.1,1,0.2,1.5,0.2l0,0c0.5,0,1-0.1,1.4-0.2c0.3-0.1,0.5,0.1,0.5,0.4v16.7c0,1.2,1,2.2,2.3,2.1c1-0.1,1.8-1.1,1.8-2.2V32.7
			c0-0.3,0.1-0.6,0.1-1c0-3.3-0.3-6.3-0.7-8.8c-0.1-0.4,0.4-0.6,0.7-0.4l1.4,1.3c0.1,0.1,0.1,0.2,0.1,0.3V31c0,0.7,0.4,1.4,1,1.7
			c0.1,0.1,0.2,0.2,0.2,0.4v1.7c0,0.2-0.2,0.4-0.4,0.4h-0.9c-0.5,0-0.9,0.4-0.9,0.9v10.4c0,0.5,0.4,0.9,0.9,0.9h4.4
			c0.5,0,0.9-0.4,0.9-0.9v-9.9C71,36,70.6,35.6,70.1,35.6z"/>
	</g>
</g>
</svg>
