<?xml version="1.0" encoding="utf-8"?>
<!-- Generator: Adobe Illustrator 19.2.1, SVG Export Plug-In . SVG Version: 6.00 Build 0)  -->
<svg version="1.1" id="Layer_1" xmlns="http://www.w3.org/2000/svg" xmlns:xlink="http://www.w3.org/1999/xlink" x="0px" y="0px"
	 viewBox="0 0 70 90" style="enable-background:new 0 0 70 90;" xml:space="preserve">
<style type="text/css">
	.st0{fill:#999999;}
</style>
<g>
	<path class="st0" d="M7.5,90h55c4.1,0,7.5-3.4,7.5-7.5V15c0-4.1-3.4-7.5-7.5-7.5H50v-5C50,1.1,48.9,0,47.5,0h-25
		C21.1,0,20,1.1,20,2.5v5H7.5C3.4,7.5,0,10.9,0,15v67.5C0,86.6,3.4,90,7.5,90z M25,5h20v5H25V5z M7.5,15h15h25h15v67.5h-55V15z"/>
	<polygon class="st0" points="18.7,29 15.1,25.4 11.6,29 18.7,36 29.3,25.4 25.7,21.9 	"/>
	<rect x="32.5" y="22.5" class="st0" width="25" height="5"/>
	<rect x="32.5" y="32.5" class="st0" width="15" height="5"/>
	<polygon class="st0" points="18.7,49 15.1,45.4 11.6,49 18.7,56 29.3,45.4 25.7,41.9 	"/>
	<rect x="32.5" y="42.5" class="st0" width="25" height="5"/>
	<rect x="32.5" y="52.5" class="st0" width="15" height="5"/>
	<polygon class="st0" points="18.7,69 15.1,65.4 11.6,69 18.7,76 29.3,65.4 25.7,61.9 	"/>
	<rect x="32.5" y="62.5" class="st0" width="25" height="5"/>
	<rect x="32.5" y="72.5" class="st0" width="15" height="5"/>
</g>
</svg>
