<?xml version="1.0" encoding="utf-8"?>
<!-- Generator: Adobe Illustrator 19.2.1, SVG Export Plug-In . SVG Version: 6.00 Build 0)  -->
<svg version="1.1" id="Layer_1" xmlns="http://www.w3.org/2000/svg" xmlns:xlink="http://www.w3.org/1999/xlink" x="0px" y="0px"
	 viewBox="0 0 94.8 76.4" style="enable-background:new 0 0 94.8 76.4;" xml:space="preserve">
<style type="text/css">
	.st0{fill:#FFFFFF;}
</style>
<g>
	<circle class="st0" cx="66.1" cy="20.5" r="2.7"/>
	<circle class="st0" cx="27.7" cy="60.2" r="2.6"/>
	<polygon class="st0" points="49.2,31.5 44.3,42.7 49.2,42.2 46.3,49.6 53.7,39.3 47.4,40 	"/>
	<circle class="st0" cx="62.9" cy="61.1" r="2.6"/>
	<polygon class="st0" points="39,25.7 43.4,19.6 39.7,20 40.8,15 37.8,21.6 40.7,21.3 	"/>
	<polygon class="st0" points="59.1,10.8 63.5,4.7 59.8,5.1 60.8,0 57.9,6.7 60.8,6.4 	"/>
	<polygon class="st0" points="69.4,65.6 66.4,72.3 69.3,71.9 67.6,76.4 72,70.2 68.3,70.7 	"/>
	<polygon class="st0" points="94.8,24.5 89.5,25.1 91,18 86.9,27.3 91,26.9 88.6,33.1 	"/>
	<polygon class="st0" points="10.3,54.3 6.2,63.6 10.2,63.1 7.8,69.3 14,60.7 8.8,61.3 	"/>
	<polygon class="st0" points="2.6,24.3 0,30.4 2.6,30.1 1.1,34.1 5.1,28.5 1.7,28.9 	"/>
	<polygon class="st0" points="80.9,51.9 78.3,57.9 80.9,57.6 79.4,61.6 83.4,56.1 80,56.5 	"/>
	<path class="st0" d="M79.5,38.7c0-2-1.7-3.7-3.7-3.7c-1.5,0-2.7,0.9-3.3,2.1h-10c-1.2-4.2-4.4-7.5-8.5-8.9v-5.7h6.9
		c0.8,2.1,2.8,3.5,5.2,3.5c3.1,0,5.6-2.5,5.6-5.6s-2.5-5.6-5.6-5.6c-2.4,0-4.4,1.5-5.2,3.5H52c-1.1,0-2,0.9-2,2v7
		c-0.1,0-0.2,0-0.2,0c-3,0-5.7,1-7.9,2.6l-8.2-3.7l0,0v-9.9c2-0.8,3.4-2.7,3.4-5c0-3-2.4-5.4-5.4-5.4s-5.4,2.4-5.4,5.4
		c0,2.4,1.5,4.3,3.6,5.1v9.9c0,0-0.3,2.3,2.3,3.4l6.9,3.1c-0.3,0.4-0.6,0.8-0.8,1.2h-8.9h-3.8h-1.8v-3c1.3-0.7,2.2-2.1,2.2-3.7
		c0-2.3-1.9-4.2-4.2-4.2s-4.2,1.9-4.2,4.2c0,1.6,0.9,3,2.2,3.7v5.2c0,1.1,0.9,2,2,2h3.7h3.1h1.7c-1.7,1.5-2.9,3.8-2.9,6.3v0.1h-8.7
		h-2.1c-0.7-1.3-2-2.1-3.5-2.1c-2.2,0-4,1.8-4,4s1.8,4,4,4c1.6,0,2.9-0.9,3.6-2.3h11.6c1.2,2.5,3.7,4.3,6.6,4.6l0,0h4.5v5.4h-6.7
		c-0.8-2-2.7-3.5-5-3.5c-3,0-5.4,2.4-5.4,5.4s2.4,5.4,5.4,5.4c2.3,0,4.3-1.4,5-3.5h8.7c1.1,0,2-0.9,2-2v-7.5h5.5v12.9
		C47.8,66,47,67.2,47,68.6c0,2,1.7,3.7,3.7,3.7s3.7-1.7,3.7-3.7c0-1.5-0.9-2.7-2.1-3.3V52.7h8.6V56c-2,0.8-3.5,2.7-3.5,5
		c0,3,2.4,5.4,5.4,5.4s5.4-2.4,5.4-5.4c0-2.4-1.6-4.4-3.7-5.1V54l0,0v-1.4c2.6-0.4,4.7-2.7,4.7-5.5c0-3.1-2.5-5.6-5.6-5.6
		c-0.2,0-0.4,0-0.6,0c0-0.2,0-0.5,0-0.7c0-0.1,0-0.2,0-0.4h9.6c0.6,1.1,1.8,1.9,3.2,1.9C77.9,42.4,79.5,40.8,79.5,38.7z M66.1,17.8
		c1.5,0,2.7,1.2,2.7,2.7s-1.2,2.7-2.7,2.7s-2.7-1.2-2.7-2.7S64.6,17.8,66.1,17.8z M27.7,62.8c-1.5,0-2.6-1.2-2.6-2.6
		c0-1.5,1.2-2.6,2.6-2.6c1.5,0,2.6,1.2,2.6,2.6C30.3,61.7,29.2,62.8,27.7,62.8z M46.3,49.6l2.9-7.4l-4.9,0.5l4.9-11.2L47.4,40
		l6.3-0.7L46.3,49.6z M65.5,61.1c0,1.5-1.2,2.6-2.6,2.6c-1.5,0-2.6-1.2-2.6-2.6c0-1.5,1.2-2.6,2.6-2.6S65.5,59.7,65.5,61.1z"/>
</g>
</svg>
