<?xml version="1.0" encoding="utf-8"?>
<!-- Generator: Adobe Illustrator 19.2.1, SVG Export Plug-In . SVG Version: 6.00 Build 0)  -->
<svg version="1.1" id="Isolation_Mode" xmlns="http://www.w3.org/2000/svg" xmlns:xlink="http://www.w3.org/1999/xlink" x="0px"
	 y="0px" viewBox="0 0 112 112" style="enable-background:new 0 0 112 112;" xml:space="preserve">
<style type="text/css">
	.st0{fill:#DD2C28;}
	.st1{fill:#FFFFFF;}
</style>
<g>
	<circle id="XMLID_41_" class="st0" cx="56" cy="56" r="56"/>
	<path class="st1" d="M88.5,42.3c0,0-0.6-4.8-2.6-6.9c-2.5-2.8-5.4-2.8-6.6-2.9C70,31.8,56,31.8,56,31.8h0c0,0-13.9,0-23.2,0.7
		c-1.3,0.2-4.1,0.2-6.6,2.9c-2,2.1-2.6,6.9-2.6,6.9s-0.7,5.6-0.7,11.2v0.7v4.6c0,5.6,0.7,11.2,0.7,11.2s0.6,4.8,2.6,6.9
		c2.5,2.8,5.8,2.7,7.3,3c5.3,0.5,22.6,0.7,22.6,0.7s13.9,0,23.2-0.7c1.3-0.2,4.1-0.2,6.6-2.9c2-2.1,2.6-6.9,2.6-6.9
		s0.7-5.6,0.7-11.2v-4.3v-1C89.2,47.9,88.5,42.3,88.5,42.3z M67.1,55.5l-17.9,9.7l0-14.9l0-4.5l8.1,4.4L67.1,55.5z"/>
</g>
</svg>
