<?xml version="1.0" encoding="utf-8"?>
<!-- Generator: Adobe Illustrator 19.2.1, SVG Export Plug-In . SVG Version: 6.00 Build 0)  -->
<svg version="1.1" id="Layer_1" xmlns="http://www.w3.org/2000/svg" xmlns:xlink="http://www.w3.org/1999/xlink" x="0px" y="0px"
	 viewBox="0 0 97.1 51.4" style="enable-background:new 0 0 97.1 51.4;" xml:space="preserve">
<style type="text/css">
	.st0{fill:#999999;}
</style>
<path class="st0" d="M38,14.4c-0.7-1.9-0.7-3.8-0.2-5.5c0.5-2,1.6-3.7,2.8-5c0.8-0.8,1.7-1.6,2.6-2.2c0.8-0.5,1.6-1,2.5-1.3l0,0
	C46.4,0.2,47.2,0,48,0c2.5-0.2,4.4,0.4,5.8,1.2c2,1.1,2.8,2.6,2.8,2.6s5.2,0.4,2.9,11.2c0.7,0.2,1.2,1.2,0.4,4
	c-1,3.5-1.9,3.7-2.4,3.3c-0.7,3.8-2.7,8.6-9.2,8.9c-6.6-0.5-8.7-5.5-9.3-9.3c-0.5,0-1.2-0.8-2-3.4C36,14.9,37.1,14.4,38,14.4z
	 M68.7,23.7c0.6,2.2,1.2,2.9,1.7,2.9c0.5,3.2,2.3,7.4,7.8,7.8c5.5-0.2,7.2-4.3,7.8-7.5c0.5,0.3,1.2,0.1,2-2.8
	c0.7-2.4,0.3-3.2-0.3-3.4c1.9-9.1-2.4-9.4-2.4-9.4s-0.7-1.3-2.4-2.2c-1.2-0.7-2.8-1.2-4.9-1c-0.7,0-1.3,0.2-1.9,0.4l0,0
	c-0.8,0.3-1.5,0.6-2.1,1.1c-0.8,0.5-1.5,1.1-2.2,1.8c-1,1.1-2,2.5-2.4,4.2c-0.4,1.5-0.4,3,0.2,4.7C68.8,20.2,67.8,20.6,68.7,23.7z
	 M9,23.7c0.6,2.2,1.2,2.9,1.7,2.9c0.5,3.2,2.3,7.4,7.8,7.8c5.5-0.2,7.2-4.3,7.8-7.5c0.5,0.3,1.2,0.1,2-2.8c0.7-2.4,0.3-3.2-0.3-3.4
	c1.9-9.1-2.4-9.4-2.4-9.4s-0.7-1.3-2.4-2.2c-1.2-0.7-2.8-1.2-4.9-1c-0.7,0-1.3,0.2-1.9,0.4l0,0c-0.8,0.3-1.5,0.6-2.1,1.1
	c-0.8,0.5-1.5,1.1-2.2,1.8c-1,1.1-2,2.5-2.4,4.2c-0.4,1.5-0.4,3,0.2,4.7C9.1,20.2,8.2,20.6,9,23.7z M0,51.4h18.8l0,0h7.5h11.2h11
	h0.1h11h11.2h7.5l0,0h18.8c-0.1-7.8,0.2-12-4.8-13.8C87.7,35.8,85,34,85,34l-3.5,11.2L81,46.7l-1.6-4.5c3.6-5.1-0.3-5.3-1-5.3l0,0
	l0,0l0,0l0,0l0,0l0,0c-0.7,0-4.6,0.2-1,5.3l-1.5,4.5l-0.5-1.5L71.9,34c0,0-1.6,1-4.3,2.3c-0.7-0.5-1.5-0.9-2.4-1.3
	c-5.5-2.1-8.7-4.2-8.7-4.2l-4.2,13.3l-0.7,1.8l-1.9-5.3c4.3-6-0.3-6.3-1.1-6.3l0,0l0,0l0,0l0,0l0,0l0,0c-0.8,0-5.5,0.3-1.1,6.3
	l-1.9,5.3L45,44.1l-4.2-13.3c0,0-3.3,2.1-8.7,4.2c-1,0.4-1.8,0.8-2.4,1.3C27,35.1,25.4,34,25.4,34l-3.5,11.2l-0.6,1.5l-1.6-4.5
	c3.6-5.1-0.3-5.3-1-5.3l0,0l0,0l0,0l0,0l0,0l0,0c-0.7,0-4.6,0.2-1,5.3l-1.5,4.5l-0.5-1.5L12.2,34c0,0-2.8,1.8-7.3,3.6
	C-0.2,39.4,0.1,43.6,0,51.4z"/>
</svg>
