<?xml version="1.0" encoding="utf-8"?>
<!-- Generator: Adobe Illustrator 19.2.1, SVG Export Plug-In . SVG Version: 6.00 Build 0)  -->
<svg version="1.1" id="Layer_1" xmlns="http://www.w3.org/2000/svg" xmlns:xlink="http://www.w3.org/1999/xlink" x="0px" y="0px"
	 viewBox="0 0 90 65.2" style="enable-background:new 0 0 90 65.2;" xml:space="preserve">
<style type="text/css">
	.st0{fill:#999999;}
</style>
<path class="st0" d="M88.8,47.6H80v-15c0-1.4-1.1-2.5-2.5-2.5h-30V17.6h8.8c0.7,0,1.3-0.6,1.3-1.3v-15C57.6,0.6,57,0,56.3,0H33.8
	c-0.7,0-1.3,0.6-1.3,1.3v15c0,0.7,0.6,1.3,1.3,1.3h8.8v12.5h-30c-1.4,0-2.5,1.1-2.5,2.5v15H1.3c-0.7,0-1.3,0.6-1.3,1.2v15
	c0,0.7,0.6,1.3,1.3,1.3h22.5c0.7,0,1.3-0.6,1.3-1.3v-15c0-0.7-0.6-1.3-1.3-1.3H15V35.1h27.5v12.5h-8.8c-0.7,0-1.3,0.6-1.3,1.3v15
	c0,0.7,0.6,1.3,1.3,1.3h22.5c0.7,0,1.3-0.6,1.3-1.3v-15c0-0.7-0.6-1.3-1.3-1.3h-8.8V35.1H75v12.5h-8.8c-0.7,0-1.3,0.6-1.3,1.3v15
	c0,0.7,0.6,1.3,1.3,1.3h22.5c0.7,0,1.3-0.6,1.3-1.3v-15C90,48.2,89.4,47.6,88.8,47.6z M22.5,50.1v12.5h-20V50.1H22.5z M55,50.1v12.5
	H35V50.1H55z M35,15.1V2.6h20v12.5H35z M87.5,62.6h-20V50.1h20V62.6z"/>
<path class="st0" d="M51.3,5.1H38.8c-0.7,0-1.3,0.6-1.3,1.3s0.6,1.3,1.3,1.3h12.5c0.7,0,1.3-0.6,1.3-1.3S51.9,5.1,51.3,5.1z"/>
<path class="st0" d="M51.3,10.1H38.8c-0.7,0-1.3,0.6-1.3,1.3s0.6,1.3,1.3,1.3h12.5c0.7,0,1.3-0.6,1.3-1.3S51.9,10.1,51.3,10.1z"/>
<path class="st0" d="M38.8,55.1h12.5c0.7,0,1.3-0.6,1.3-1.3s-0.7-1.2-1.3-1.2H38.8c-0.7,0-1.3,0.6-1.3,1.3S38.1,55.1,38.8,55.1z"/>
<path class="st0" d="M38.8,60.1h12.5c0.7,0,1.3-0.6,1.3-1.3s-0.7-1.2-1.3-1.2H38.8c-0.7,0-1.3,0.6-1.3,1.3S38.1,60.1,38.8,60.1z"/>
<path class="st0" d="M6.3,55.1h12.5c0.7,0,1.3-0.6,1.3-1.3s-0.7-1.2-1.3-1.2H6.3c-0.7,0-1.3,0.6-1.3,1.3S5.6,55.1,6.3,55.1z"/>
<path class="st0" d="M6.3,60.1h12.5c0.7,0,1.3-0.6,1.3-1.3s-0.7-1.2-1.3-1.2H6.3c-0.7,0-1.3,0.6-1.3,1.3S5.6,60.1,6.3,60.1z"/>
<path class="st0" d="M71.3,55.1h12.5c0.7,0,1.3-0.6,1.3-1.3s-0.7-1.2-1.3-1.2H71.3c-0.7,0-1.3,0.6-1.3,1.3S70.6,55.1,71.3,55.1z"/>
<path class="st0" d="M71.3,60.1h12.5c0.7,0,1.3-0.6,1.3-1.3s-0.7-1.2-1.3-1.2H71.3c-0.7,0-1.3,0.6-1.3,1.3S70.6,60.1,71.3,60.1z"/>
</svg>
