<?xml version="1.0" encoding="utf-8"?>
<!-- Generator: Adobe Illustrator 19.2.1, SVG Export Plug-In . SVG Version: 6.00 Build 0)  -->
<svg version="1.1" id="Layer_1" xmlns="http://www.w3.org/2000/svg" xmlns:xlink="http://www.w3.org/1999/xlink" x="0px" y="0px"
	 viewBox="0 0 32 32" style="enable-background:new 0 0 32 32;" xml:space="preserve">
<style type="text/css">
	.st0{fill:#FFFEFD;}
</style>
<path class="st0" d="M16,0C7.2,0,0,2.7,0,6c0,0.9,0,2,2,4c0,0,7,7,10,9c0,4,0,11,0,11c0,1.1,1.8,2,4,2s4-0.9,4-2c0,0,0-9,0-11
	c3-2,10-9,10-9c2-2,2-3.1,2-4C32,2.7,24.8,0,16,0z M16,10.9c-6.6,0-12-1.8-12-4s5.4-4,12-4c6.6,0,12,1.8,12,4S22.6,10.9,16,10.9z"/>
</svg>
