<?xml version="1.0" encoding="utf-8"?>
<!-- Generator: Adobe Illustrator 19.2.1, SVG Export Plug-In . SVG Version: 6.00 Build 0)  -->
<svg version="1.1" id="Layer_1" xmlns="http://www.w3.org/2000/svg" xmlns:xlink="http://www.w3.org/1999/xlink" x="0px" y="0px"
	 viewBox="0 0 112.8 112.8" style="enable-background:new 0 0 112.8 112.8;" xml:space="preserve">
<style type="text/css">
	.st0{fill:#999999;}
</style>
<g>
	<polygon class="st0" points="77.8,73.2 77.8,85.8 31.8,85.8 31.8,82.2 51.6,56 31.8,28.2 31.8,25.8 77.8,25.8 77.8,39.5 70.4,30.2 
		45.3,30 62.7,52.5 45.3,76.5 45.3,79.2 70.8,79.2 	"/>
	<path class="st0" d="M56.4,112.8C25.3,112.8,0,87.5,0,56.4S25.3,0,56.4,0s56.4,25.2,56.4,56.4C112.8,87.5,87.5,112.8,56.4,112.8z
		 M56.4,7.9C29.7,7.9,8,29.6,8,56.3s21.7,48.4,48.4,48.4s48.4-21.6,48.4-48.3S83.1,7.9,56.4,7.9z"/>
</g>
</svg>
