<?xml version="1.0" encoding="utf-8"?>
<!-- Generator: Adobe Illustrator 19.2.1, SVG Export Plug-In . SVG Version: 6.00 Build 0)  -->
<svg version="1.1" id="Layer_1" xmlns="http://www.w3.org/2000/svg" xmlns:xlink="http://www.w3.org/1999/xlink" x="0px" y="0px"
	 viewBox="0 0 95.7 85.3" style="enable-background:new 0 0 95.7 85.3;" xml:space="preserve">
<style type="text/css">
	.st0{fill:#FFFFFF;}
</style>
<path class="st0" d="M40.8,85.3c-1.1,0-1.9-0.9-1.9-1.9v-3.7L39,63.3v-3.7c0-1.1,0.9-1.9,1.9-1.9h9c1.1,0,1.9,0.9,1.9,1.9v3.7
	l-0.1,16.4v3.7c0,1.1-0.9,1.9-1.9,1.9H40.8z M69.9,83.4V68.9v-5.7V48.7c0-1.1-0.9-1.9-1.9-1.9h-9c-1.1,0-1.9,0.9-1.9,1.9v14.5v5.7
	v14.5c0,1.1,0.9,1.9,1.9,1.9h9C69,85.4,69.9,84.5,69.9,83.4z M80.6,14.2L67.9,34.4c-0.6,1,0.1,2.2,1.2,2.2h6.2l-0.1,46.8
	c0,1.1,0.9,1.9,1.9,1.9h9c1,0,1.9-0.8,1.9-1.8l0,0l0.1-30.8v-0.9V36.7h6.2c1.1,0,1.8-1.3,1.2-2.2L83.1,14.2
	C82.5,13.3,81.1,13.3,80.6,14.2z M21.7,16.3L21.7,16.3L21.7,16.3c7.4-0.1,6.3-9.8,6.3-9.8C27.7,0,22.2,0,21.7,0s-6-0.1-6.3,6.5
	C15.4,6.4,14.3,16.2,21.7,16.3L21.7,16.3C21.6,16.3,21.7,16.3,21.7,16.3z M1.6,38.6C-0.3,36.9-0.6,34,1.1,32l9.4-10.2
	c0.3-0.3,0.6-0.6,0.9-0.8c2.6-1.8,5.6-3,5.6-3l2.5,8l1.5-4.2c-2.7-3.7,0.3-3.8,0.7-3.8l0,0c0.4,0,3.4,0.1,0.7,3.8l1.5,4.2l2.5-8
	c0,0,2.9,1.2,5.6,3c0.3,0.2,0.6,0.5,0.9,0.8L42.3,32c1.7,2,1.4,4.9-0.5,6.6l-11.3,9.7l1.8,34.4c0.1,1.3-0.8,2.4-2.1,2.6
	s-2.6-0.7-2.8-2l-4.9-26.1c-0.1-0.4-0.5-0.7-0.9-0.7s-0.8,0.3-0.9,0.7l-4.8,26.1c-0.2,1.3-1.5,2.2-2.8,2C11.9,85.1,11,84,11,82.7
	l1.9-34.4L1.6,38.6z M30.4,41.4l5.7-5.8l-4.7-4.3L30.4,41.4z M7.2,35.6l5.7,5.8l-1-10.1L7.2,35.6z"/>
</svg>
