<?xml version="1.0" encoding="utf-8"?>
<!-- Generator: Adobe Illustrator 19.2.1, SVG Export Plug-In . SVG Version: 6.00 Build 0)  -->
<svg version="1.1" id="Layer_1" xmlns="http://www.w3.org/2000/svg" xmlns:xlink="http://www.w3.org/1999/xlink" x="0px" y="0px"
	 viewBox="0 0 70.3 62.5" style="enable-background:new 0 0 70.3 62.5;" xml:space="preserve">
<style type="text/css">
	.st0{fill:#FFFFFF;}
</style>
<g>
	<g>
		<path class="st0" d="M11.7,45C11.7,45,11.7,45,11.7,45l-0.6-1.3h0c-0.3-0.6-1.1-0.9-1.7-0.6c0,0-0.1,0-0.1,0.1l0,0l-0.7,0.3
			l-4-8.8L5,33.5c-0.1,0-3-5.2-3-5.2l-0.8,0.4l0,0L1,28.7l-0.2,0.1l0,0L0,29.2c0,0,2,5.6,1.9,5.7l1.2,0.4l4,8.8l-0.6,0.3l0,0
			c-0.1,0-0.2,0-0.3,0.1c-0.3,0.2-0.6,0.4-0.7,0.7c-0.1,0.3-0.1,0.6,0,1h0l0.6,1.3c0,0,0,0,0,0c0.1,0.3,0.4,0.6,0.7,0.7
			c0.5,0,0.9,0.3,1.1,0.8c0.1,0.3,0.1,0.7,0,1c0,0.1-0.1,0.2-0.1,0.2c0,0.1-0.1,0.1-0.1,0.2c-0.1,0.3-0.1,0.7,0,1l0.6,1.3L8,53.7
			c-0.7,1.6,0.1,3.5,1.8,4.2c0.4,0.1,0.8,0.2,1.1,0.2l1.6,3.6c0.3,0.6,1,0.9,1.7,0.7l3.2-1.5v0c0.3-0.2,0.5-0.4,0.6-0.7
			c0.1-0.3,0.1-0.7,0-1l-2.6-5.8l5.6-12.6V24.2l-9.3,21.1C11.7,45.2,11.7,45.1,11.7,45z"/>
		<path class="st0" d="M33.6,16.3c4.8,0,8.6-3.7,8.6-8.2c0-4.5-3.9-8.2-8.6-8.2C28.8,0,25,3.7,25,8.2C25,12.7,28.8,16.3,33.6,16.3z"
			/>
		<path class="st0" d="M69.9,32.5c-0.2-0.6-0.6-1.2-0.6-1.2c-0.2-0.3-0.4-0.2-0.6,0.1l-1.4,3.1c-0.1,0.3-0.5,0.6-0.8,0.6l-1.6,0.2
			c-0.3,0-0.7-0.2-0.9-0.4l-1-1.3c-0.2-0.3-0.2-0.7-0.1-1l1.4-3.1c0.1-0.3,0-0.5-0.3-0.5c0,0-0.7,0.1-1.3,0.3
			c-2.9,1.1-4.4,4.4-3.3,7.3c0.2,0.5,0.5,1,0.8,1.5c-0.3,2.5-1.8,6.3-3.5,10L46.1,24.2v16.6l6.6,14.9c-1.1,2.1-1.9,3.5-1.9,3.5l0,0
			c0,0,0,0.1-0.1,0.1c-0.5,1.1,0,2.5,1.1,3.1c1.2,0.5,2.5,0,3-1.2c0,0,0-0.1,0-0.1l0,0c0,0,0.4-1.1,1-2.8c0.5,0,0.9-0.1,1.4-0.2
			c1.7-0.7,2.6-2.6,1.8-4.2L58.4,52c1.9-4.5,4.3-9.5,6.4-11.8c0.6,0,1.2-0.1,1.8-0.4C69.5,38.7,71,35.4,69.9,32.5z M54,60.7
			c-0.3,0.7-1.1,1-1.8,0.7c-0.7-0.3-1-1.1-0.7-1.8c0.3-0.7,1.1-1,1.8-0.7C54,59.2,54.3,60,54,60.7z"/>
		<path class="st0" d="M39.9,19v12.3H27.3V19c-1.7,0.3-3,0.7-3,0.7c-0.1,0-0.1,0-0.2,0.1l0,39.6H43l0-39.6c-0.1,0-0.1,0-0.2-0.1
			C42.8,19.7,41.6,19.4,39.9,19z"/>
	</g>
</g>
</svg>
