<?xml version="1.0" encoding="utf-8"?>
<!-- Generator: Adobe Illustrator 19.2.1, SVG Export Plug-In . SVG Version: 6.00 Build 0)  -->
<svg version="1.1" id="Layer_1" xmlns="http://www.w3.org/2000/svg" xmlns:xlink="http://www.w3.org/1999/xlink" x="0px" y="0px"
	 viewBox="0 0 51.2 70.9" style="enable-background:new 0 0 51.2 70.9;" xml:space="preserve">
<style type="text/css">
	.st0{fill:#FFFFFF;}
</style>
<g>
	<path class="st0" d="M36.8,3.6h-4.7c-0.5,0-1-0.3-1.3-0.7c-1.1-1.8-3-2.9-5.2-2.9s-4.2,1.2-5.2,2.9c-0.3,0.5-0.8,0.7-1.3,0.7h-4.7
		c-2.6,0-4.9,2-5.1,4.6c-0.2,2.9,2.1,5.2,4.9,5.2H37c2.8,0,5.1-2.4,4.9-5.2C41.7,5.6,39.5,3.6,36.8,3.6z"/>
	<g>
		<path class="st0" d="M11,35.9c-0.1,0-0.2,0-0.3,0c-0.5-0.1-0.8-0.4-1-0.8L8.3,32c-0.4-0.8,0.1-1.8,1-2.1c0.7-0.2,1.5,0.2,1.8,0.9
			l0.2,0.4c0.2,0.4,0.7,0.5,1,0.2l4.1-3.4c0.6-0.5,1.6-0.4,2.1,0.2s0.4,1.6-0.2,2.1l-6.2,5.2C11.7,35.8,11.3,35.9,11,35.9z"/>
	</g>
	<g>
		<path class="st0" d="M11,60.8c-0.1,0-0.2,0-0.3,0c-0.5-0.1-0.8-0.4-1-0.8l-1.4-3.1c-0.4-0.8,0.1-1.8,1-2.1
			c0.7-0.2,1.5,0.2,1.8,0.9l0.3,0.7c0.1,0.3,0.5,0.3,0.7,0.2l4.3-3.6c0.6-0.5,1.6-0.4,2.1,0.2c0.5,0.6,0.4,1.6-0.2,2.1L12,60.4
			C11.7,60.7,11.3,60.8,11,60.8z"/>
	</g>
	<path class="st0" d="M50.4,9.1h-4.8c-0.4,0-0.7,0.3-0.8,0.7c-0.3,1.5-0.9,3-2,4.1c-1.5,1.6-3.6,2.5-5.8,2.5H14.2
		c-2.2,0-4.3-0.9-5.8-2.5c-1.1-1.1-1.8-2.6-2-4.1C6.3,9.4,6,9.1,5.6,9.1H0.8C0.4,9.1,0,9.5,0,9.9v60.2c0,0.4,0.4,0.8,0.8,0.8h49.6
		c0.4,0,0.8-0.4,0.8-0.8V9.9C51.2,9.5,50.8,9.1,50.4,9.1z M20,62.4c0,0.5-0.4,0.8-0.8,0.8H7.7c-0.5,0-0.8-0.4-0.8-0.8V50.9
		c0-0.5,0.4-0.8,0.8-0.8h11.5c0.5,0,0.8,0.4,0.8,0.8V62.4z M20,37.6c0,0.5-0.4,0.8-0.8,0.8H7.7c-0.5,0-0.8-0.4-0.8-0.8V26
		c0-0.5,0.4-0.8,0.8-0.8h11.5c0.5,0,0.8,0.4,0.8,0.8V37.6z M42.5,62.8H27c-1.1,0-2-0.9-2-2s0.9-2,2-2h15.5c1.1,0,2,0.9,2,2
		S43.6,62.8,42.5,62.8z M42.5,54.6H27c-1.1,0-2-0.9-2-2s0.9-2,2-2h15.5c1.1,0,2,0.9,2,2S43.6,54.6,42.5,54.6z M42.5,37.9H27
		c-1.1,0-2-0.9-2-2s0.9-2,2-2h15.5c1.1,0,2,0.9,2,2S43.6,37.9,42.5,37.9z M42.5,29.7H27c-1.1,0-2-0.9-2-2s0.9-2,2-2h15.5
		c1.1,0,2,0.9,2,2S43.6,29.7,42.5,29.7z"/>
</g>
</svg>
