<?xml version="1.0" encoding="utf-8"?>
<!-- Generator: Adobe Illustrator 19.2.1, SVG Export Plug-In . SVG Version: 6.00 Build 0)  -->
<svg version="1.1" id="Isolation_Mode" xmlns="http://www.w3.org/2000/svg" xmlns:xlink="http://www.w3.org/1999/xlink" x="0px"
	 y="0px" viewBox="0 0 112 112" style="enable-background:new 0 0 112 112;" xml:space="preserve">
<style type="text/css">
	.st0{fill:#999999;}
	.st1{fill:#FFFFFF;}
</style>
<g>
	<circle id="XMLID_49_" class="st0" cx="56" cy="56" r="56"/>
	<path id="XMLID_47_" class="st1" d="M89.2,38.9c-2.4,1.1-5.1,1.8-7.8,2.1c2.8-1.7,5-4.3,6-7.4c-2.6,1.5-5.5,2.7-8.6,3.3
		c-2.5-2.6-6-4.2-9.9-4.2c-7.5,0-13.6,6-13.6,13.4c0,1.1,0.1,2.1,0.3,3.1c-11.3-0.6-21.3-5.9-28.1-14c-1.2,2-1.8,4.3-1.8,6.7
		c0,4.6,2.4,8.7,6.1,11.2c-2.2-0.1-4.3-0.7-6.2-1.7c0,0.1,0,0.1,0,0.2c0,1.7,0.3,3.4,0.9,4.9c1.7,4.2,5.4,7.4,10,8.3
		c-1.1,0.3-2.3,0.5-3.6,0.5c-0.9,0-1.7-0.1-2.6-0.2C32,70.2,37,74,43,74.2c-4.7,3.6-10.5,5.7-16.9,5.7c-1.1,0-2.2-0.1-3.3-0.2
		c6,3.8,13.2,6,20.9,6c21.3,0,34.4-14.7,37.8-30c0.6-2.7,0.9-5.4,0.9-8.1c0-0.6,0-1.2,0-1.7C85.1,44,87.4,41.6,89.2,38.9z"/>
</g>
</svg>
