<?xml version="1.0" encoding="utf-8"?>
<!-- Generator: Adobe Illustrator 19.2.1, SVG Export Plug-In . SVG Version: 6.00 Build 0)  -->
<svg version="1.1" id="Layer_1" xmlns="http://www.w3.org/2000/svg" xmlns:xlink="http://www.w3.org/1999/xlink" x="0px" y="0px"
	 viewBox="0 0 100 65" style="enable-background:new 0 0 100 65;" xml:space="preserve">
<style type="text/css">
	.st0{fill:#D9D9D9;}
</style>
<g>
	<path class="st0" d="M28,64.1l-0.1-0.4l-0.1-0.2l0,0h-0.2l-0.3,0.2L27.2,64l-0.1,0.2L26.7,64l-0.4-0.3l-0.2-0.1l0.4,0.5l0.3,0.3
		l0.4,0.3l0.3,0.1l0.2,0.1L28,65l0.2-0.2l0.1-0.2l0.1,0.2h0.3l0.1-0.2l-0.4-0.1L28,64.1z M88.2,58.7c-0.1,0-0.2,0.1-0.4,0.1
		l-0.3-0.1h-0.2v0.2l0.2,0.3v0.2l0.2,0.3h0.2H88l0.2-0.3l0.1,0.1v-0.3l0.1-0.1v-0.4L88.2,58.7z M95.5,58.8L95.3,59
		c0-0.1-0.1-0.2-0.1-0.3L95,58.8V59l-0.1,0.1l-0.1,0.3l-0.2,0.2c-0.1,0.1-0.3,0.2-0.4,0.3L94,60l-0.4,0.4l-0.1,0.3v0.1h0.3l0.2,0.1
		h0.3c0.1-0.1,0.2-0.2,0.4-0.3l0.2-0.4l0.1-0.3l0.2-0.1h0.2l-0.1-0.2l0.1-0.2c0.1-0.1,0.2-0.3,0.3-0.5v-0.2L95.5,58.8z M96.5,57.7
		h-0.2L96,57.6v-0.3l-0.1-0.1v0.2L95.7,57l-0.1-0.3l-0.2-0.1l-0.2-0.1h-0.1l0.1,0.2l0.2,0.3l0.1,0.1v0.1l0.1,0.2v0.2v0.3L95.4,58
		v0.1l0.3,0.1l0.1,0.2l-0.2,0.3l0.1,0.1v0.1l0.2-0.1c0.1-0.2,0.2-0.4,0.3-0.5v-0.2l0.1-0.1h0.2L96.5,57.7l0.2-0.2h-0.1L96.5,57.7z
		 M60.9,50.1l-0.1-0.2l-0.1-0.1l-0.1-0.1l-0.1,0.1V50l-0.2,0.2h-0.1v0.1l-0.1,0.1L60,50.5l-0.2,0.2h-0.1l-0.1,0.1l-0.2,0.1h-0.1v0.2
		l-0.1,0.2v0.3l0.1,0.2l0.1,0.1v0.2l-0.1,0.2v0.1l-0.1,0.1v0.2v0.2l0.1,0.2v0.3l0.1,0.2c0.1,0.1,0.3,0.1,0.4,0.2l0.2-0.1l0.2-0.1
		l0.1-0.4c0.1-0.6,0.3-1.2,0.5-1.7v-0.2l0.1-0.1v-0.1l-0.1-0.2l0.1-0.1L61,51v-0.1v-0.1l-0.1-0.1V50.1z M89.7,54v-0.2l-0.1-0.3
		l-0.2-0.2c-0.1-0.1-0.2-0.2-0.3-0.3v-0.3H89l-0.1-0.1l-0.1,0.1l-0.1-0.3l-0.2-0.2v-0.1c-0.1-0.1-0.3-0.2-0.4-0.3l-0.3-0.2l-0.1-0.2
		v-0.2L87.6,51h-0.1c0-0.1-0.1-0.3-0.1-0.4v-0.1l-0.1-0.1l-0.1-0.1L87,50.4l0-0.3V50v-0.2l-0.1-0.1v-0.1h-0.1v-0.2l-0.1-0.1
		l-0.1,0.1v0.1l-0.1,0.2l-0.1,0.2V50l-0.1,0.1v0.2v0.2v0.1v0.1l-0.1,0.2v0.2l-0.1,0.1L86,51.4l-0.2,0.1l-0.3-0.1v-0.1l-0.1-0.1h-0.1
		L85.1,51L85,50.9l0-0.3l-0.2-0.1v-0.1l0.1-0.1l0.1-0.1v-0.1h0.1l0.1-0.1l0.1-0.2L85,49.6l0,0h-0.1l-0.2,0.1l-0.2-0.1h-0.1l-0.2-0.1
		l-0.1-0.1l-0.2-0.1h-0.1l0.2,0.1v0.1l-0.2,0.1h-0.1l-0.2,0.1l-0.1,0.2V50l-0.1,0.1l-0.1,0.2l0.1,0.2h-0.2h-0.2l-0.2-0.2l-0.2-0.1
		c-0.1,0-0.2,0.1-0.3,0.1v0.1h-0.1v0.1H82l-0.2,0l-0.2,0.1v0.2l-0.1-0.1l-0.1,0.1l0.1,0.1L81.4,51l-0.1-0.3l-0.2,0.2
		c0,0.1,0,0.2,0,0.3l-0.2,0.1l-0.1,0.2l-0.2,0.1l-0.3,0.1h-0.2H80v0.1h-0.2l-0.2,0.1h-0.1h-0.1L79.2,52l-0.1,0.1l-0.2,0.4l-0.1,0.2
		v-0.2l-0.1,0.2v0.2v0.2l-0.1,0.1v0.2l0.1,0.1v0.1l0.1,0.2V54l-0.1-0.1l-0.1-0.1l0.1,0.3L78.6,54v0.1l0.2,0.2v0.2l0.1,0.1v0.1
		l0.1,0.2v0.2v0.2l0.1,0.3v0.2V56v0.1v0.1H79v0.2l0.2,0.1l0.3,0.2c0.1,0,0.3,0,0.4,0l0.1-0.1l0.1-0.1h0.1l0.2-0.2h0.2h0.2l0.2,0.1
		h0.2h0.2l0.1-0.1l0.1-0.2l0.2-0.1l0.3-0.2h0.3c0.2-0.1,0.5-0.2,0.7-0.2h0.5l0.3,0.2h0.2l0.4,0.2l-0.1,0.1l0.1,0.1l0.2,0.2v0.2
		l0.2,0.1l0.1-0.3l0.2-0.1l0.2-0.3v0.2l-0.1,0.2v0.2l-0.1,0.2l0.2-0.1l0.1-0.2l0.1,0.3L85.5,57h0.3l0.1,0.1l0.1,0.2l0,0.2l0.2,0.2
		l0.3,0.1h0.2c0.1,0,0.3,0.1,0.4,0.2l0.2-0.3l0.2-0.1v0.2l0.2,0.1l0.2,0.2l0.2-0.2l0.1-0.1l0.3-0.1h0.3l0.2-0.1v-0.1v-0.2l0.1-0.3
		l0.1-0.2l0.1-0.3l0.1-0.2l0.1-0.3l0.2-0.2l0.1-0.3l0.1-0.2v-0.2c0-0.1,0.1-0.3,0.1-0.4v-0.3l-0.1-0.3L89.7,54z M81.8,48.7
		L81.8,48.7l-0.3,0.2l-0.1,0.2v0.1l0,0l0.2-0.1l0.2-0.2c0.2-0.1,0.4-0.1,0.5-0.2l0.1-0.1h-0.1h-0.1H82L81.8,48.7z M79.9,48.6
		L79.9,48.6h-0.2h-0.2l-0.1,0.2h0.2c0.2,0,0.3-0.1,0.5-0.1L80,48.6H79.9z M80.8,48.6l-0.2-0.1l-0.2,0.1v0.1L80.8,48.6h0.4v-0.2
		L81,48.6H80.8z M78.9,48.7l0.3-0.1l-0.3-0.2l-0.4-0.1l-0.1-0.2L77.9,48l-0.1,0.1h-0.5V48h-0.1L77,47.9h-0.3l-0.2,0.3h0.3v0.1
		l0.5,0.1h0.1h0.2l0.3,0.1l0.3,0.1h0.3L78.9,48.7L78.9,48.7z M88.1,47.9l-0.5-0.2v-0.2l-0.1,0l-0.2-0.1l-0.5-0.2L86.3,47L86,46.9
		c-0.1-0.1-0.3-0.1-0.4-0.2h-0.2L85,46.9l-0.2,0.3L84.5,47l-0.1-0.5v-0.1L84,46.3l-0.1,0.1l-0.5,0.1l0.1,0.1l0.2,0.1l0.1,0.2h0.4V47
		H84l-0.3,0.1l0.2,0.1v0.1l0.1,0.1h0.1l0.1-0.1l0.4,0.3h0.2l0.5,0.2l0.1,0.2l0.1,0.3l-0.2,0.1l-0.1,0.2h0.4l0.1-0.1l0.3,0.1l0.2,0.2
		h0.3h0.2l0.2-0.1v-0.2l0.2-0.1l0.2-0.1l0.4,0.1l0.1,0.2l0.2,0.2l0.2,0.2c0.2,0,0.3,0.1,0.5,0.1l0.1,0.1H89v-0.1L88.7,49l0.1-0.1
		h-0.2v-0.1h-0.2l-0.1-0.3L88,48.3v-0.2h0.3L88.1,47.9z M80.2,46.6v0.2L80.1,47l0.1,0.2h0.1v0.3l-0.1,0.3l0.1,0.1h0.2
		c0-0.2,0-0.5,0-0.7l0.2-0.1v0.3l0.2,0.2v0.1l0.1,0.1l0.3-0.1H81l0.1,0.1l0.1-0.1v-0.2l-0.3-0.3l0.1-0.1l-0.3-0.4l0.2-0.1l0.1-0.2
		h0.1v-0.1l-0.3,0.2l-0.2,0.1l-0.2-0.2v-0.2h0.2h0.5l0.3,0.1l0.2-0.1l0.2-0.3v-0.1L81.5,46h-0.3h-0.4l-0.2-0.1l-0.2,0.2l-0.1,0.1
		L80.2,46.6z M76.5,47.4l0.1-0.3l-0.1-0.2h-0.2l-0.1-0.2v-0.2l-0.2,0l-0.2-0.1l0.1-0.2l-0.2-0.1l-0.2-0.2l-0.2-0.2H75l-0.3-0.3
		l-0.2-0.1l-0.2-0.2l-0.2-0.3c-0.2,0-0.4-0.1-0.6-0.1v0.1l0.3,0.3l0.2,0.2l0.1,0.2l0.3,0.2l0.1,0.2l0.1,0.2l0.2,0.2l0.2,0.4l0.1,0.2
		l0.2,0.2l0.1,0.2l0.4,0.2l0.2,0.2h0.3L76.5,47.4z M79.5,44.3l-0.1,0.2l-0.2,0.2L79,44.9L78.9,45l-0.1,0.2l-0.2,0.2l-0.3,0.1H78v0.2
		l-0.2,0.1l-0.2-0.1l-0.2,0.2v0.3v0.2l0.1,0.2l0.1,0.1v0.4h0.2H78l0.1,0.1l0.3-0.1l0.1,0.1h0.2l0.1,0.2l0.3-0.1v0.1l0.1-0.4v-0.3
		l0.3-0.2v-0.3l0.1-0.2h0.3l-0.3-0.3v-0.1l-0.2-0.3l0.2-0.3l0.2-0.1v-0.1H80v-0.1c-0.1,0-0.3-0.1-0.4-0.2L79.5,44.3L79.5,44.3
		L79.5,44.3z M81.4,43.8l-0.2,0.1L81,44l0,0.2v0.1l0.2-0.2h0.1l0.1-0.1l0.2,0.1l-0.1,0.1l0.1,0.2l0.3,0.2l0.1-0.1l-0.1-0.2l0.1-0.1
		l0.1,0.3l0.1-0.3c0-0.2-0.1-0.4-0.1-0.6l-0.2-0.1v0.2h-0.2v0.1l-0.2,0.1L81.4,43.8z M81.2,43.2v0.2l-0.1,0.1l0,0l0.2,0.2l0.1-0.1
		l0.1-0.2l0.1-0.1V43l-0.2,0.3v-0.2L81.2,43.2z M80.1,43.3L80,43.5l-0.2,0.2l-0.1,0.2l0.4-0.3l0.1-0.2l0.2-0.2V43L80.1,43.3z
		 M82,42.8L82,42.8l-0.4-0.1l0.2,0.2V43h-0.2v0.2h0.1v0.2l0.1-0.1l-0.1-0.2V43l0.2,0.1L82,42.8z M81.1,41L81.1,41h-0.3h-0.2
		l-0.1,0.3v0.5l-0.1-0.1V42v0.1l0.1,0.2v-0.1l0.1,0.1l-0.1,0.1v0.1l0.1,0.1h0.3l0.2,0.2l0.1-0.1l0.1,0.2l0.2,0.1v-0.1l0-0.4v-0.2
		l-0.3-0.2h-0.1H81l-0.1-0.2v-0.2l0.2-0.1l0.1-0.2L81,41.2L81.1,41L81.1,41z M25.6,40.6h0.2H26h0.2v-0.1L26,40.3h-0.2v-0.1l-0.2-0.1
		h-0.1c-0.2-0.1-0.3-0.3-0.5-0.4h-0.3l-0.1-0.1l-0.3-0.1h-0.2h-0.2h-0.1h-0.2l-0.1,0.1l-0.1,0.1l-0.1,0.1l-0.1,0.1h0.1h0.1v-0.1h0.1
		l0.2-0.2H24l0,0.2l0.1,0.1h0.4l0.1,0.1l0.3,0.1h0.2l0.1,0.2l0.1,0.1h0.2l0.1,0.1l-0.2,0.2L25.6,40.6z M84.1,36.4L84.1,36.4h0.2
		l0.2-0.2v-0.1L84.3,36l-0.1,0.1H84l-0.2,0.2v0.2l0.2,0.1L84.1,36.4z M85.7,34.8l-0.4,0.4L85.1,35l-0.3,0.6l-0.3-0.1l-0.6,0.1
		l-0.2,0.2L83.4,36l-0.1,0.2L83,36.3l0.1,0.2l0.2,0.1l-0.1,0.3l0.1,0.1l0.2-0.1l0.2-0.6l-0.3-0.2h0.3l0.3-0.2l0.5-0.1v0.3l0.2,0.1
		l0.4-0.4h0.5l0.4-0.2l0.1-0.2v-0.2l0.1-0.3v-0.4l0.3-0.4v-0.3l-0.1-0.3l-0.3,0.1L86,33.8v0.4l-0.2,0.4L85.7,34.8z M86.1,32.8
		L86,33.1v0.4h0.3l0.2-0.4l0.4,0.3l0.2-0.4l0.4-0.1l-0.1-0.4l-0.1,0h-0.2l-0.2-0.1L86.6,32l-0.1,0.3l-0.1,0.5H86.1z M31.4,29.5
		l0.1-0.1L31.4,29.5h-0.3l-0.2,0.3l-0.3,0.7l-0.2,0.3l0.1,0.1L30.3,31v0.1h0.5h0.3l0.3,0.1l-0.2,0.2h0.2l0.3-0.4l0.1,0.1l-0.1,0.3
		l0.3,0.1h0.1l0.1-0.4l-0.1-0.3v-0.2l-0.2,0.1l0.1-0.3l-0.3-0.1l-0.1,0.1l-0.2-0.1l0.1-0.2L31.3,30l-0.2,0.1
		C31.2,29.9,31.3,29.7,31.4,29.5z M86.5,29.2l0.2,0.4v0.6l-0.1,0.3V31v0.4l0.1,0.3l0.2-0.3l0.2,0.2v-0.3l-0.3-0.4l0.2-0.6l0.4,0.1
		L87,29.7l-0.1-0.5v-0.4c-0.1-0.3-0.1-0.5-0.2-0.8l-0.1,0.1l0.1,0.2l-0.3,0.2L86.5,29.2z M44.5,29.3L45,29l0.2-0.4v-0.3l0.1-0.3
		L45,27.7h-0.2c-0.2,0.2-0.4,0.4-0.6,0.6l0.1,0.5l-0.2,0.5H44.5z M45.4,27.6l0.2-0.2l0.1,0.1l-0.1,0.2l0.1,0.1l0.3,0.1l0.2,0.3v0.3
		h-0.4l-0.1,0.3l0.2,0.2l-0.3,0.1l0.1,0.2l0.4,0.1l-0.4,0.1L45.3,30l0.1,0.1l0.2-0.2h0.3l0.2-0.2l0.1,0.1l0.5-0.1h0.4l0.3-0.2
		l-0.1-0.2l0.1-0.1v-0.3l-0.3-0.1L47,28.6l-0.2-0.5L46.6,28l-0.3-0.6H46l0.3-0.5l0.1-0.4h-0.3h-0.3l0.3-0.6h-0.3h-0.2l-0.2,0.4
		l-0.1,0.5l0.1,0.3L45.4,27.6z M43.1,22.1l-0.3-0.5l0.1-0.4h-0.5L42,21.5l-0.4-0.2l-0.4,0.4l-0.4-0.5l-0.4,0.1l-0.2,0.4l0.6,0.2v0.2
		l-0.5,0.1l0.6,0.3l-0.3,0.3c0.4,0.1,0.8,0.2,1.1,0.3c0.4-0.2,0.7-0.4,1-0.6L43.1,22.1z M37.1,47.8L37,47.7h-0.2l-0.2-0.1l-0.4-0.3
		l-0.4-0.2h-0.4L34.9,47l-0.3,0.1v-0.2l-0.1-0.2l-0.6-0.2l-0.4-0.1l-0.2,0.2v-0.3h-0.5l-0.1-0.1l0.2-0.2v-0.2h-0.1l-0.2-0.5
		l-0.1-0.2h-0.1V45l-0.3-0.2c-0.2-0.1-0.4-0.1-0.6-0.2h-0.2v0.1L31,44.6c-0.1-0.1-0.2-0.2-0.3-0.2h-0.1v-0.1l-0.2-0.2
		c-0.1-0.1-0.2-0.1-0.3-0.2H30v-0.2l-0.3-0.2h-0.2l-0.1-0.1l0.2-0.1c-0.2,0-0.5,0-0.7,0v0.1l-0.2,0.1h-0.2l-0.2-0.1H28h-0.3v-0.1
		l-0.2-0.2h-0.2l-0.1-0.2L27.1,43v0.1L27,43.2v0.2l0.1,0.1L27,43.7h-0.1l-0.1-0.2l0.1-0.2v-0.1l-0.1-0.1H27V43l0.1-0.1L27,42.8h-0.1
		l-0.1,0.1c-0.1,0.1-0.2,0.1-0.3,0.2h-0.2v0.1h-0.2l-0.2,0.1l-0.1,0.2v0.1h-0.1l-0.2,0.2h-0.1l-0.1-0.1l-0.1-0.1h-0.1h-0.2l0,0h-0.2
		l-0.1,0.1l-0.2,0.1l-0.1,0.1h-0.1l-0.1-0.1l0,0H24v-0.1c-0.1-0.1-0.2-0.2-0.3-0.3l-0.1-0.2l0,0v-0.1l0.1-0.1v-0.1v-0.1l0,0v-0.1
		v-0.1v-0.1v-0.1l0.1-0.1v-0.1v-0.1l0,0L23.7,42h-0.1l-0.1-0.1l-0.1-0.1l0,0h-0.1h-0.1h-0.1H23h-0.1l0,0h-0.1h-0.1h-0.1l0,0l0,0
		h-0.1l-0.1,0.1h-0.1l0,0l-0.1-0.1l0.1-0.1h0.1l0.1-0.1v-0.1l0,0v-0.1l0,0v-0.1v-0.1h-0.1l0,0h0.1l0.1,0.1c0-0.1,0.1-0.2,0.1-0.4
		l-0.1-0.1l0.1-0.2l0.2-0.2v-0.1l-0.1-0.1h-0.2h-0.2l-0.3,0.1l-0.2,0.1v0.1v0.2l-0.1,0.2L21.6,41c-0.1,0-0.3,0.1-0.4,0.1H21
		l-0.2,0.1l-0.1-0.1L20.4,41L20,40.7v-0.1l-0.2-0.2l-0.1-0.2l-0.1-0.1v-0.2v-0.1v-0.4v-0.2l0.1-0.3l0,0l0,0l-0.1-0.1v-0.1v-0.2
		l0.1-0.1l0.2-0.2l0.3-0.1l0.3-0.2l0.2-0.1h0.2l0.2,0.1h0.2l0.2,0.2h0.2l0.1-0.1h0.1H22l0-0.4v-0.1l-0.1-0.1H22h0.2h0.2h0.3l0.2,0.1
		l0.1,0.2l0,0l0.3-0.1h0.1l0.2,0.3l0.1,0.2l-0.1,0.2v0.1c0.1,0.2,0.2,0.3,0.3,0.5L24,39v0.1h0.1h0.1l0.1-0.2c0-0.1,0-0.2,0-0.3
		l-0.1-0.4v-0.1l-0.1-0.2L24,37.6v-0.2v-0.2l0.1-0.2l0.2-0.2l0.3-0.2v-0.1l0.1-0.1h0.1l0.2-0.2l0.3-0.1l0.2-0.3v-0.3v-0.1h-0.1v-0.3
		L25.2,35l0.2,0.1l0.2-0.6l0.1-0.2v0.3l0.1,0.1l-0.1,0.2l0,0c0.1-0.1,0.2-0.3,0.2-0.4v-0.1l-0.1-0.1l-0.1-0.2l0.1,0.1h0.1v0.1
		l0.2-0.3l0.1-0.3h-0.1l0.1-0.1l0,0h0.2l0.4-0.1l-0.1-0.1l-0.4,0.1l0.2-0.1c0.1,0,0.2,0,0.3,0l0.2-0.1h0.1l0.2-0.1v-0.1L27.2,33v0.1
		h-0.1L27,32.9v-0.2c0.1-0.1,0.1-0.2,0.2-0.3c0.2-0.1,0.4-0.2,0.6-0.2l0.3-0.2v-0.1h0.3h0.4l-0.5,0.3v0.3h0.2l0.3-0.3l0.3-0.2
		l0.6-0.2l0.3-0.3l-0.2-0.1v-0.3l-0.3,0.5L29,31.7l-0.4-0.2l-0.1-0.3l-0.1-0.4l0.3-0.3l-0.2-0.2h-0.4l-0.6,0.4l-0.4,0.5l-0.2,0.1
		l0.3-0.4l0.4-0.6l0.4-0.2l0.2-0.3h0.3h0.4l0.6,0.1l0.5-0.1l0.4-0.4l0.5-0.2c0.1-0.1,0.3-0.2,0.4-0.3v-0.5l-0.1-0.2L31,28.4L30.9,28
		l-0.2-0.2l-0.4-0.1L30,27.4l-0.4-0.3l0.1-0.3c-0.2-0.4-0.4-0.9-0.7-1.3L28.8,25l-0.2,0.3l-0.3,0.6L28,26.1l-0.2-0.3l-0.3-0.1
		L27.4,25v-0.5H27l-0.1-0.2L26.6,24l-0.3-0.2L26.1,24l-0.3-0.1l-0.5-0.2l-0.2,0.1l0.1,0.9l0.1,0.5L25,25.8l0.3,0.4l0.2,0.4v0.3
		l-0.2,0.3L25,27.5l-0.4,0.2l0.2,0.3l0.1,0.7l-0.2,0.5l-0.1,0.3l-0.4-0.4L24,28.6l-0.1-0.5v-0.4h-0.3h-0.5l-0.3-0.2l-0.3-0.1
		l-0.2-0.2L22,27l-0.5-0.2l-0.4,0.1L21,26.3l-0.1-0.5l-0.4-0.1v-0.6l0.1-0.4l0.3-0.7l0.3-0.5l0.3-0.1V23l0.2-0.3h0.4l0.3-0.4
		l0.1-0.3l0.3-0.6l0.1-0.3l0.3,0.2l0.4-0.1l0.5-0.5v-0.4L24,19.9l0.2-0.4v-0.4l-0.4-0.4l-0.4-0.1L23,18.5v0.9l-0.2,0.7l-0.3,0.5
		l-0.3-0.5l0.1-0.6L22,19.1l-0.4,0.6v-0.8l-0.5-0.2l0.2-0.4l-0.4-1l-0.3-0.4l-0.4-0.1L20,17.5v0.9l0.3,0.3l0.3,0.5L20.5,20h-0.2
		l-0.2,0.6v-0.7l-0.4-0.3l-0.2,0.1v0.5h-0.4l-0.4,0.1L18.2,20l-0.3,0.1l-0.3-0.4l-0.2-0.2l-0.3,0h-0.3l-0.2,0.3l0.3,0.3l-0.4,0.4
		l-0.3-0.4L16,20.2l-0.8,0.1l-0.5-0.2l0.4-0.4l-0.4-0.4h-0.3L14,19.2l-0.7-0.3L13,18.6h-0.3l-0.1,0.2l-0.3,0.1v-0.6l-0.4,0.5
		l-0.5-0.7L11.2,18l-0.1,0.5l-0.2,0.2l-0.2-0.3l-0.5,0.1l-0.4,0.4l-0.4-0.1L9.1,19l-0.2,0.3l-0.3-0.1l-0.4-0.4
		c-0.3-0.1-0.5-0.2-0.8-0.3L7,18.3l-0.5,0.2l-0.2-0.1l-0.5-0.1L5.2,18l-0.3,0.1L4.5,18v-0.2L4,17.7l-0.1,0.2l-0.3-0.4l-0.4-0.2
		l-0.4,0.5l-0.3-0.1L2,18.1l-0.3,0.1l-0.3,0.4L1.3,19L1,19.3H0.5l-0.2,0.4l0.4,0.2L1,20.3l0.2,0.4L1.5,21l0.2,0.4H1.1v-0.3H1
		l-0.6,0.3L0,21.7l0.4,0.4l0.1,0.3l0.4,0.1l0.4-0.1l0.2,0.1l0.1-0.1l0.3-0.1h0.2l-0.3,0.2L2,22.7v0.2l-0.2,0.2L1.6,23l-0.2,0.3
		l-0.2-0.1H1l-0.1,0.3l-0.2,0.3l-0.1,0.3l0.2,0.2v0.3L1,25l0.2,0.3l0.4-0.1l0.2,0.2l-0.1,0.2v0.3h0.2l0.3-0.2L2.3,26l0.1-0.2
		l0.2,0.3l0.2-0.2L2.9,26l0.3-0.2l-0.1,0.3v0.4l-0.2,0.2l-0.1,0.1l-0.4,0.3l-0.1,0.2L2,27.4l-0.3,0.3l-0.3,0.2l-0.3,0.2v0.1l0.5-0.1
		l0.2-0.2c0-0.2,0.2-0.3,0.4-0.4h0.2l0.3-0.2l0.1-0.2l0.4-0.3l0.1-0.2l0.3-0.2l0.3-0.2l0.3-0.4l-0.3-0.3l0.4-0.4l0.2-0.4l0.4-0.3
		L5,24.6l-0.3,0.2l-0.1,0.6v0.3l0.3-0.2l0.2-0.2l0.3-0.1h0.2l-0.1-0.4l0.3-0.1l0.3,0.2l0.5,0.3H7c0.3,0.1,0.5,0.2,0.8,0.3l0.6,0.6
		l0.3,0.2h0.4h0.3l0.2,0.5l0.4,0.4l0.1,0.4l0.2,0.2l0.2,0.2v0.2l0.3,0.3v0.4l0.4,0.2v0.3l0.2,0.4l0.5,0.2l0.2,0.2l0.5,0.4l0,0
		l0.1,0.3v0.3l-0.1,0.1l-0.1-0.4l-0.4-0.1v0.1l0.1,0.2l0.1,0.4l0.1,0.5l-0.1,0.7l-0.1,0.4l0.1,0.3v0.3L12.2,34l0.1,0.2v0.3l0.2,0.3
		l0.1,0.1V35l0.2,0.5l0.3,0.3V36l0.1,0.1h0.3l0.1,0.1h0.2v0.1h0.1l0.2,0.2v0.2l0.1,0.3c0.1,0.2,0.2,0.5,0.3,0.7l0.2,0.1l0.2,0.2v0.1
		l-0.1,0.1h-0.1l0,0l0.2,0.2l0.2,0.1l0.1,0.1l0,0c0.1,0.1,0.2,0.2,0.3,0.2V39v0.2l0.1,0.1l0.2,0.1l0.2,0.2l0.1,0.2l0,0l0.1-0.1v-0.1
		c-0.1-0.1-0.1-0.2-0.2-0.3h-0.1v-0.2c0-0.1-0.1-0.2-0.2-0.3l0.1-0.3l-0.2-0.2l-0.1-0.1l-0.1-0.1l-0.1-0.2l0,0v-0.1l0,0v-0.1
		L15,37.5l-0.1-0.1v-0.2V37v-0.1l0.2,0.1h0.1l0.2,0.1v0.1l0.1,0.2l0.2,0.2v0.1c0.1,0.1,0.2,0.2,0.3,0.3h0.2l0.1,0.2l0.2,0.2l0.1,0.1
		v0.2l0.1,0.1l0.2,0.1l0.1,0.2l0.3,0.2l0.2,0.3l0.1,0.2v0.1l0.1,0.1v0.1l-0.1,0.1v0.1h-0.1l0.1,0.1l0.1,0.2l0.3,0.2l0.1,0.1l0.3,0.1
		h0.2l0.1,0.1l0.2,0.1l0.3,0.1h0.2l0.3,0.1l0.2,0.1l0.2,0.1h0.1l0.2-0.1h0.2l0.2,0.1l0.1,0.1l0.3,0.3l0.2,0.1l0.1,0.1h0.2l0.1,0.1
		l0.1,0.1h0.2l0.1,0.1h0.1h0.2v-0.1h0.1v0.1l0,0l0,0l0,0l0.1,0.1l0.1,0.1l0.1,0.1c0.1,0.1,0.2,0.1,0.2,0.2L23,43.1h0.1v0.1v0.1v0.1
		h0.1l0.1,0.1l0.1-0.1v-0.1l0.1,0.1v0.1h0.1l0.1,0.1l0.1,0.1v0.1l0,0l0.1,0.1l0.2,0.1l0,0v-0.1h0.1h0.1h0.1l0.1,0.1h0.1l0,0v0.2h0.1
		l0,0h0.1L24.7,44v-0.1h0.1l0.1-0.1l0.1-0.1h0.1l0.1,0.1l0.1,0.1h0.1L25,44l0.1,0.2l0.1,0.1l0.1,0.1v0.2l-0.1,0.1l0.1,0.3l-0.1,0.2
		l0.1,0.1c-0.1,0.1-0.2,0.2-0.2,0.3L25,45.5v0.1v0.1h-0.1v0.1l-0.2,0.1L24.5,46v0.1l-0.1,0.2l0,0.2h-0.1v0.3l-0.1,0.1l0.2,0.1
		l0.1-0.1l0.1,0.1l-0.1,0.2l-0.2,0.2l-0.1,0.2l0.1,0.3L24.2,48l0.2,0.1l0.2,0.2l0.1,0.2l0.1,0.1c0.2,0.4,0.4,0.7,0.5,1.1l0.2,0.4
		v0.1l0.1,0.2l0.2,0.2l0.5,0.3l0.6,0.3v0.1l0.3,0.2l0.1,0.4v0.5c-0.1,0.6-0.2,1.3-0.2,1.9L27,54.7v0.4l-0.1,0.3l0.1,0.5l-0.1,0.5
		c-0.1,0.4-0.3,0.7-0.4,1.1h-0.1v0.4l0.1,0.3l-0.1,0.2c-0.1,0.4-0.1,0.8-0.2,1.2l0.2,0.1l0.1-0.5l0.2,0.1l-0.1,0.8L26.3,60l-0.1,0.7
		l-0.3,0.4l0.4,0.1L26,61.5l-0.1,0.4v0.7l0.1,0.3l-0.1,0.3l0.1,0.3l0.3,0.3l0.3,0.3l0.3,0.2H27v-0.4l0.3-0.2l0.1-0.1h0.2h0.1
		l-0.2-0.3l-0.1-0.5l0.1-0.2l0.3-0.2l0.2-0.5l0.3-0.2l0.1-0.4l-0.3-0.1l-0.3-0.3l0.1-0.3l0.2-0.2h0.3l0.1-0.2v-0.4l0.5-0.3l0.3-0.1
		l-0.1-0.2L29,59.3l-0.2-0.1v-0.4l0.1-0.1l0.3,0.1l0.3-0.1l0.2-0.1l-0.2-0.1l0.1-0.3L29.5,58h0.3l0.6-0.1l0.4-0.2l0.3-0.5V57
		l-0.2-0.2v-0.2l-0.3-0.1v-0.2l0.2,0.2H31l0.3,0.1h0.2l0.2,0.1l0.3-0.2l0.1-0.2l0.2-0.2l0.1-0.3l0.2-0.2l0.2-0.3l0.3-0.6l0.2-0.2
		l0.1-0.2l0.1-0.3v-0.2v-0.2l0.2-0.3l0.3-0.2l0.3-0.1l0.2-0.1l0.4-0.1h0.3l0.1-0.2l0.2-0.1v-0.3l0.3-0.4v-0.4l0.1-0.1
		c0-0.2,0.1-0.4,0.1-0.6v-0.5l0.1-0.2h0.1l0.2-0.2l0.2-0.3l0.4-0.4l0.1-0.2l0.1-0.5C37.2,48.1,37.1,47.9,37.1,47.8z M14.5,17.4
		l-0.6,0.3L14,18h0.4l0.6-0.1l0.5,0.2l-0.4,0.1h-0.4l-0.4,0.1l-0.1,0.2l0.3,0.6l0.2-0.1l0.4,0.2l0.2,0.4c0.4-0.1,0.8-0.1,1.2-0.2
		l0.5-0.3h0.3l0.5,0.2l0.5,0.1l0.1-0.3l-0.2-0.3l0.5-0.1v-0.4c-0.3-0.3-0.7-0.5-1-0.8c-0.1-0.5-0.2-1-0.3-1.5l-0.3-0.4l-0.3-0.2
		l-0.2,0.1l0.2,1l-0.1,0.4L16.5,16l-0.3-0.3l-0.3,0.5l-0.4-0.5L14.9,16l0.1-0.4l-0.2-0.1L14,16.1l-0.2,0.4l-0.2,0.7l0.5,0.2H14.5z
		 M28,18.4l-0.2-0.3l-0.7-0.3l-0.3-0.6l-0.5,0.2V17l-0.5-0.5L25.2,16l-0.3,0.4l-0.6,0.3v-0.6l-0.5-1l-0.6,0.4L23,16.3l-0.2-0.6
		l0.2-0.6l-0.7,0.3L22,15.7l-0.2,0.8l0.1,0.9h0.4L22,17.8l0.2,0.3l0.5,0.1l0.6,0.2l1,0.2l0.5-0.1l0.1-0.2l0.2,0.3h0.2l0.3,0.5
		l-0.2,0.2l0.6,0.3l0.4,0.4l0.1,0.3l0.1,0.3l-0.4,0.7l-0.1,0.3l0.1,0.2l-0.6,0.1h-0.5L25,22.4l0.2,0.2l0.8-0.1v-0.2
		c0.3,0.2,0.5,0.4,0.8,0.6l-0.1,0.2l0.3,0.3l0.6,0.4l0.8,0.2v-0.2c-0.2-0.3-0.5-0.6-0.7-0.9l0.7,0.5l0.4,0.2l0.1-0.4l-0.2-0.7
		l-0.1-0.2L28.2,22l-0.3-0.4v-0.4l0.4-0.1l0.4,0.7l0.3,0.3l0.5-0.8l0.1-0.5h-0.4l-0.4-0.7l-0.4-0.2l-0.7-0.4l0.5-0.4L28,18.4z
		 M18.9,15l-0.3,0.5l0.3,0.6L18.3,16v0.3L19,17l0.2,0.3l0.3,0.1l0.5-0.3l0.1-0.8l-0.4-0.4l0.3-0.5l-0.1-0.3l-0.5,0.1L18.9,15z
		 M20.3,15l-0.1,0.4v0.5l0.2,0.8h0.3L21,16l0.3-0.2l0.4-0.9l-0.5-0.2h-0.6L20.3,15z M86.2,14h1l0.2-0.8l-1-0.6l-0.7-0.1l-0.4,0.2
		l-0.1,0.8l0.6,0.7L86.2,14z M18.6,12.3h-0.3v0.9l0.5-0.1v0.6l0.3,0.2l0.5-0.1l0.1-0.8v-0.6l-0.2-0.6V12L19,11.9L18.6,12.3z
		 M15.7,13.6l-0.6,0.5v0.3h0.4l0.7-0.5l0.9-0.2l0.2-0.5v-0.6L17,12.5l-0.2,0.2l-0.1-0.2l-0.1-0.6l-0.3-0.1L16,12.2l0.4,1.1L16,13.2
		l-0.5-0.7l-0.8-0.4l-0.3,0.4L14,13.6l0.4,0.2L15.7,13.6z M61.3,17.2l0.5,0.2l0.1,0.4l0.9,0.1l0.2-0.1l-0.5-0.7l-0.1-0.7
		c0.3-0.6,0.6-1.3,0.9-1.9l0.9-1c0.6-0.4,1.2-0.7,1.8-1.1l0.2-0.4L66,11.6l-0.5,0.2L65,12.2l-1,0.2l-0.9,0.7l-0.6,0.6l0.1,0.5
		l-0.7,0.9l0.3,0.1L61.6,16v0.5l-0.3,0.2V17.2z M20.7,12.3l0.3,0.5v0.6l0.1,0.6l0.7,0.3l0.5,0.1h0.6l0.8-0.2l0.4,0.1l0.4-0.2
		l0.2-0.3l-0.1-0.5l-0.3-0.4l-0.5-0.1l-0.6,0.1l-0.4,0.2L22.4,13H22l-0.2-0.3l-0.3-0.3l0.1-0.4l-0.2-0.4h-0.5l-0.3-0.4L20,11.1
		l-0.1,0.5l0.3,0.4L20.7,12.3z M17.8,9.3l-0.3,0.4l0.6,0.1l0.5,0.4l0.5,0.1L19,9.8l-0.2-0.7L18,8.6l-0.5-0.2V9L17.8,9.3z M20.4,8.3
		h0.5l-0.2,0.4v0.5L21,9.8l0.6,0.2l0.5-0.1l0.5-1.1L23,8.4l-0.3-0.5l-0.2-1.1c-0.3-0.2-0.6-0.4-0.9-0.7l-0.4-1l-0.6,0.1l0.1,0.4
		l-0.3,0.1l-0.2,0.5L20,6.9l0.2,0.7L20.4,8.3z M21.7,5.1l0.2,0.7l0.5,0.6l1-0.1L24,6.5l-0.4,0.6l-0.2-0.2l-0.8-0.1l0.1,0.8l0.4,0.6
		L23,8.7L22.5,9l-0.2,0.5l0.5,0.3l0.4,0.9l-0.7-0.6l-0.2,0.1l0.1,0.9l-0.5,0.3V12l0.5,0.1l0.4,0.1l0.8-0.2l0.7,0.3l0.7-0.7v-0.3
		h-0.5V11l0.4-0.4l0.1-0.5l0.4-0.4l0.3-0.5l-0.2-0.7l0.2-0.3L25.3,8l0.8-0.2l0.2-0.3l0.6-0.3l0.5-1.3l0.5-0.5l0.7-1.1H28l0.3-0.4
		L29,3.5l0.7-0.9V2l-0.5-0.6l-0.6,0.1c-0.7-0.2-1.3-0.3-2-0.5l-0.8,0.4l-0.1-0.3l-0.9,0.1l-0.5,0.3l-0.4,0.4l-0.2,1.2l-0.3-0.6
		l-0.3-0.1l-0.4,0.8l-0.6,0.3h-0.3l-0.4,0.4l0.1,0.7L21.7,5.1z M40.3,18.3h-0.7l0.3-0.4l-0.1-0.6c0.2,0.3,0.4,0.5,0.6,0.8l0.5-0.2
		l-0.1-0.7l-0.4-0.5L40,16.5l0.1-0.2l0.6,0.4v-0.4l-0.4-0.8h0.4l0.4-0.2l0.1-0.3l-0.3-0.4l0.6-0.1l-0.4-0.9l0.3-0.1l-0.1-1l-0.5-0.6
		l0.5-0.4l0.4-0.1l-0.3-0.8V9.1C41.6,8.4,41.8,7.7,42,7l-0.6-0.1l0.9-0.3l0.2-0.4l1.1-1.3l-0.2-0.8l-0.8-0.4l-1.4,0.8l-0.7,0.7
		l0.3-1.1l-0.3-0.6L40,4.1l-0.8-0.7l-1,0.2L38,3.3c0.9-0.1,1.7-0.2,2.6-0.3l0.5-0.8l-1.7-1.9L37.2,0l-1,0.2l-0.4,0.9l-1-0.1
		l-0.9,1.4v0.9l0.7,1.1L34,3.8l-0.4-0.2l-0.7-0.8l-0.7,1.1l-0.3-0.6H31l-0.9,0.3l-0.7,0.5L29.5,5l-0.4,0.2l-1,1.2l-0.2,0.7l0.8,0.6
		l-0.1,0.6c-0.7,0.5-1.4,0.9-2.1,1.4v0.5l0.6,0.5l1.2,0.3l-0.6,0.1L27,11.5l0.5,0.8l0.3,0.4c0.5-0.1,0.9-0.1,1.4-0.1l0.6,0.1
		l0.7,0.7v0.5l0.4,0.4c0.2,0.6,0.4,1.2,0.6,1.8l0.2,0.4l-0.3,0.8l0.2,0.2l0.3-0.1c0.2,0.3,0.5,0.6,0.7,0.8L32,17.8h-0.3l-0.1,0.4
		v0.6l0.3,0.3l0.3-0.1c0.2-0.1,0.3-0.3,0.5-0.4l-0.1,0.6l0,0.3l-0.4,0.3l-0.3,0.9l0.2,0.3L32,21.5l0.4,0.6v0.6l0.1,0.4l0.5,0.8
		l0.2,0.6l0.3,0.3h0.6l0.4,0.5h0.4c0.1-0.3,0.2-0.7,0.3-1L35,23.6l0.5-0.5l0.1-0.4v-0.5l0.2-0.4c0.3-0.1,0.5-0.2,0.8-0.3h0.2
		l0.6-0.5l0.4-0.8l0.3-0.3h0.3l0.8-0.3L40,19l0.7-0.7H40.3z M99.5,20.8l-0.8-0.1l0.1,0.5L98.6,21v-0.4l-0.7-0.7l-0.5-0.4l0,0
		l-0.3-0.3l0,0L96.8,19L96,18.6h-0.6l-0.9-0.2l-0.1,0.4l0.2,0.5l-0.3,0.2l-0.5-0.7l-0.5,0.1l-0.5-0.2h-0.5l-0.4,0.2l-0.3-0.2v-0.6
		l-0.2-0.3l-0.6-0.1l-1.1,0.2L89,17.2l-0.2-0.5l-2.5-0.6l-0.4,0.4l0.2,0.8l-0.5-0.1l-0.2,0.2l-0.5-0.3l-0.5,0.2L84,16.9l-0.3,0.9
		l-0.6-0.3l-0.4-0.7l0.2-0.4l-0.1-0.6l-0.5-0.5h-0.4l-0.6-0.2v0.7l-1.2-0.1L80,15.2L79.1,15l-0.4,0.2l-0.1,0.3l-0.1-0.6l-0.3,0.2
		l-0.4-0.3l-0.3-0.1l0.2-0.3l0.7-0.6l0.3-0.3l0.1-0.6l-0.2-0.4L78,11.9h-0.8l-0.3,0.3l-0.1-0.7l-0.6-0.2l0.4-0.3l-0.5-0.4l-0.7,0.5
		l-0.3,0.5L75,12.1h-0.5l-0.6,0.6l-0.2-0.2L73,12.6l-0.1,0.3l-0.7,0.2l-0.5,0.5h-0.3l-0.3,0.7l0.2,0.5l-0.6,0.1H70l-0.5,0.2v1
		l0.2,0.8l-0.5-0.4h-0.6l-0.5,0.4l0.1,0.6l-0.3-0.2l0.1-0.9l-0.1-0.5h-0.1l0.1,0.7l-0.5,0.6l0.4,0.7l-0.2,0.8l0.1,0.4l0.3,0.1
		l-0.1,0.5l0.2,0.4l-0.2,0.3l-0.1,0.4L67.5,21l-0.1,0.3l-0.3-0.1l0.5-1l0.1-0.5l-0.3-0.5l0.1-1.1l-0.1-0.6L67,17.3l0.3-0.7l-0.1-0.5
		l-0.7-0.3L66.3,16l-0.2,0.8l-0.5,0.8v0.3l0.1,0.6l-0.1,0.4l0.3,0.1v0.2l0.3,0.4L66,20l-1-0.9l-0.4-0.2l-0.8-0.2L63.7,19l0.3,0.5
		L63.7,20l-0.3-0.5L63,19.8h-0.5l-0.2,0.3L62,20l0.3-0.5h-0.2c-0.5,0.3-1,0.7-1.6,1L60.4,21L60,21.2L59.8,21v-0.4l0.4-0.1L60,20.1
		l-0.8-0.2l0.2,0.5l-0.3,0.1l0.2,0.4l-0.2,0.5l-0.3-0.2h-0.3L58,21.8l0.2,0.5L58,22.5l-0.7-0.4l-0.2,0.2l0.2,0.3v0.3L57,22.7
		l-0.3-0.2v-1L56.2,21l0.2-0.1l1.2,0.5l0.5-0.2l0.3-0.4v-0.5L58.2,20l-1.1-0.9l-0.8-0.2l-0.5-0.5l-0.3,0.3l-0.3-0.5l0.4-0.2
		l-0.8-0.5l-0.5,0.2h-0.5l-0.4,0.7h-0.5l-0.6,0.4c-0.4,0.5-0.8,1-1.2,1.6c-0.4,0.8-0.8,1.5-1.2,2.3l-0.6,0.7l-0.7,0.5l-0.3,0.4
		l0.1,1.3l0.1,0.6l0.4,0.3l0.4-0.1l0.6-0.6l0.2,0.3l0.2,0.7l0.2,0.6l0.1,0.5h0.3l0.2-0.4h0.3l0.2-0.5l0.1-0.9L52,26l0.3-0.6L52,25.1
		l-0.2-0.4l0.2-0.8l0.5-0.5l0.4-0.5v-0.4l0.3-0.5l0.5-0.2l0.4,0.3v0.3l-0.2,0.1l-0.6,0.7L53,23.6L52.9,24l0.1,0.5l-0.1,0.6l0.3,0.2
		l0.2,0.3l0.5-0.1l0.5-0.2h0.5l0.3,0.3l-0.5-0.1h-0.3l-0.3-0.1l-0.3,0.1l-0.4,0.2V26l0.2,0.2l0.1-0.1c0,0.2-0.1,0.5-0.1,0.7h-0.2
		l-0.2-0.4L53,26.6l-0.1,0.3v0.4l0.1,0.4l-0.4,0.2l-0.1,0.2h-0.3V28l-0.3-0.1c-0.3,0.1-0.5,0.3-0.8,0.4l-0.2,0.1l-0.1-0.2L50.5,28
		l-0.2,0.1L50,28.3v-0.2L49.7,28v-0.2l-0.1-0.3l0.2-0.4l0.1,0.1L50,27l-0.2-0.1v-0.1l0.1-0.2v-0.3l-0.2,0.2l-0.1,0.1h-0.2l-0.1,0.2
		v0.1v0.5l0.1,0.3V28l0.1,0.2l-0.3,0.3l-0.1-0.1h-0.2v0.1h-0.2l-0.4,0.2L48,29.4l-0.1,0.1c-0.2,0.1-0.3,0.1-0.5,0.2l-0.1,0.4
		l-0.6,0.3l-0.3-0.2l0.1,0.5L46,30.5l-0.4,0.1v0.3l0.4,0.2l0.2,0.2l0.3,0.4v0.8l-0.1,0.2h-0.5h-0.2l-0.3-0.1H45l-0.3-0.1l-0.4,0.3
		l0.1,0.2v0.3v0.1l0.1,0.1v0.2l-0.1,0.2V34l-0.1,0.1v0.2l0.1,0.1h0.1v0.2v0.3h0.1h0.1l0.1-0.1l0.3,0.1l0.1,0.2l0.1,0.1h0.1l0.1-0.1
		l0.2-0.1c0.2,0,0.4,0,0.6,0l0.2-0.3l0.2-0.1l0.1-0.2l0.2,0.1l-0.1-0.2L47,34l0.2-0.2v-0.1l0.4-0.1l0.3-0.2v-0.2V33l0.4-0.1l0.6,0.1
		l0.3-0.2h0.1l0.2-0.2l0.1-0.1l0.2,0.1h0.1L50,33l0.2,0.2l0.3,0.2l0.2,0.2h0.2l0.1,0.1l0.2,0.1l0.1,0.2h0.1c0.1,0.1,0.1,0.3,0.2,0.4
		l-0.2,0.1l-0.1,0.2v0.1h0.1l0.1-0.3h0.1v-0.2l-0.2-0.1l0.1-0.2l0.2,0.1l0.2,0.2l0.1-0.1v-0.1l-0.2-0.2c-0.2-0.1-0.3-0.2-0.5-0.2
		l0.1-0.1l-0.1-0.1h-0.2l-0.3-0.3l-0.1-0.3l-0.3-0.4l-0.1-0.2v-0.1V32l0.2-0.1l0.2,0.1c0,0,0,0-0.1,0v0.1l0.1,0.1l0.1-0.2l0.2,0.1
		v0.1l0.1,0.2H51l0.2,0.3l0.3,0.1l0.2,0.1c0.1,0.1,0.3,0.1,0.4,0.2l0.1,0.1h0.1v0.1v0.1v0.3v0.2l0.2,0.1v0.1l0,0v0.1
		c0.1,0.1,0.2,0.2,0.3,0.4v0.2l0.1,0.3l0.2,0.2h0.2L53.2,35h0.2l-0.1-0.2l0.3,0.1v-0.2l-0.1-0.1l-0.2-0.2l0.1-0.1l-0.1-0.2l-0.1-0.2
		l0.1-0.1l0.1,0.2h0.2l0.1-0.1l-0.2-0.2l0.3-0.1h0.1h0.2v0.1l0.1,0.2c0.1-0.1,0.2-0.2,0.4-0.3h0.3l0.1-0.1l-0.2-0.1v-0.1l-0.1-0.2
		l0.1-0.3l0.1-0.2l0.1-0.5h0.1l0.1-0.1v-0.1l0.2-0.3l0.1-0.2l0.3-0.1v0.2l0.4,0.1l0.1,0.1L56,31.9V32l0.3,0.1l-0.1,0.2l0.2,0.1
		l0.4-0.2l0.3-0.1l0.1-0.1h-0.3l-0.1-0.1v-0.2l0.2-0.2h0.3l0.2-0.1h0.2l0.3-0.1v0.1l-0.6,0.1l0.2,0.2L57.4,32l-0.2,0.1l0.2,0.2
		l0.3,0.1l0.4,0.3l0.1,0.1h0.2l0.2,0.1l0.1,0.3v0.2l-0.3,0.2h-0.2l-0.3,0.1l-0.7-0.2l-0.5-0.3h-0.5L56,33.4l-0.3,0.2h-0.5L55,33.9
		h-0.4l-0.3,0.3l0.2,0.2l-0.1,0.3l0.2,0.2l0.2,0.3h0.3l0.3,0.2h0.2l0.1-0.1H56l0.2,0.2h0.4l0.2-0.2l0.2,0.1h0.2l-0.1,0.1H57
		l-0.1,0.1v0.3l0,0l-0.1,0.2l-0.1,0.3l0,0v0.1l-0.1,0.2l-0.1,0.2l0,0L56.4,37l-0.1,0.1h-0.2L55.9,37l-0.1,0.1l-0.1-0.2h-0.2h-0.2
		L55.2,37L55,37.2c-0.2-0.1-0.4-0.2-0.7-0.2h-0.4l-0.1-0.1h-0.3l-0.1-0.1h-0.1l-0.1-0.1l-0.3-0.2h-0.2l-0.2,0.2l-0.1,0.2l0.1,0.3
		l-0.1,0.1l-0.1,0.1L52,37.2l-0.4-0.1L51.3,37l-0.1-0.3l-0.4-0.1l-0.2-0.1h-0.1l-0.3-0.1H50v-0.2h-0.1L49.8,36l0.2-0.2v-0.3h-0.1
		v-0.2l0.1-0.2V35l-0.2,0.1v-0.2h-0.2L49.3,35h-0.2L49,35.1h-0.3l-0.3,0.1l-0.1-0.1c-0.3,0-0.6,0-0.9,0.1l-0.3,0.1l-0.2,0.2
		l-0.3,0.1l-0.3,0.2h-0.1l-0.3-0.1h-0.3l-0.1-0.2h-0.2l-0.1,0.2L45,36.1l-0.2,0.1l-0.3,0.2l-0.2,0.2v0.2l-0.1,0.3l0.1,0.4L44,37.7
		l-0.1,0.1L43.7,38h-0.3l-0.1,0.1l-0.2,0.4l-0.2,0.1l-0.1,0.2V39l-0.1,0.2h-0.1l-0.2,0.2l-0.1,0.2v0.1l-0.1,0.2L42.1,40
		c0,0.1,0,0.2,0,0.3l0.1,0.1l0.1,0.1v0.1v0.1V41v0.3l0,0.2v0.2l-0.1,0.1L42.1,42L42,42.1l0.1,0.1l0.1,0.2v0.1v0.2v0.1l0.1,0.1l0,0
		l0.1,0.1h0.1l0.1,0.1h0.1v0.1v0.1l0.1,0.1h0.1l0.1,0.1l0.1,0.2v0.2V44l0.1,0.2l0.2,0.1h0.1l0.2,0.2l0.2,0.2l0.3,0.2l0.3,0.1h0.1
		h0.1c0.2-0.1,0.3-0.1,0.5-0.2h0.3h0.2l0.2,0.1H46l0.2,0.1l0.3-0.1l0.2-0.1l0.4-0.2l0.2-0.1h0.2c0.2,0,0.3,0,0.5,0l0.2,0.2l0.1,0.2
		l0.1,0.2h0.2l0.1-0.1h0.1l0.3-0.1V45h0.1l0.1,0.1h0.1l0.1,0.2v0.2l-0.1,0.3h0.1c0,0.1-0.1,0.3-0.1,0.4l0,0.3v0.1l0.2,0.3l0.2,0.2
		l0.3,0.3l0.2,0.3l0.1,0.2V48v0.1l0.1,0.2c0,0.2,0.1,0.3,0.1,0.5l-0.1,0.1V49c0,0.1,0.1,0.2,0.1,0.3l0.1,0.1v0.2v0.2l-0.1,0.1
		l-0.2,0.2l-0.1,0.1l-0.1,0.3v0.1l-0.1,0.3v0.3c0,0.1,0,0.3,0,0.4l0.2,0.3l0.1,0.2l0.1,0.4l0.1,0.2l0.1,0.1V53v0.4l0.1,0.5l0.1,0.2
		l0.1,0.3l0.1,0.2l0.2,0.2c0.2,0.3,0.3,0.7,0.5,1v0.3l-0.1,0.1l0.1,0.2v0.2v0.1l0,0l0.1,0.2H52l0.1,0.1h0.1l0.2-0.1l0.2-0.1l0.3-0.1
		H53h0.2l0.3,0.1l0.1-0.1h0.2v-0.1h0.1l0.3-0.1l0.2-0.2c0.2-0.2,0.3-0.4,0.5-0.5l0.2-0.2l0.1-0.2l0.1-0.2c0.1-0.1,0.2-0.1,0.2-0.2
		l0.5-0.5v-0.3l0.1-0.2v-0.2H56v-0.1l0.1-0.1c0.2-0.1,0.4-0.2,0.6-0.3l0.1-0.1v-0.1L56.7,53v-0.1v-0.3l0,0v-0.1l-0.1-0.2l-0.1-0.2
		v-0.2l0.1-0.1l0.2-0.2l0.1-0.1l0.3-0.3c0.2-0.1,0.4-0.2,0.6-0.3l0.2-0.2l0.1-0.2l0.1-0.2v-0.1v-0.4v-0.3v-0.3v-0.1L58.1,49L58,48.8
		l-0.1-0.2v-0.1v-0.1l0.1-0.2v-0.1L57.8,48v-0.2l0.1-0.3l0.1,0l0.1-0.2l0.1-0.1V47h0.1l0.1-0.1l0.2-0.1l0.1-0.1l0.1-0.1l0.3-0.3
		l0.3-0.2l0.4-0.3l0.3-0.2c0.2-0.2,0.4-0.5,0.6-0.7l0.2-0.4c0.1-0.2,0.2-0.4,0.3-0.7l0.1-0.3l0.1-0.1v-0.1v-0.2V43h-0.1L61,43h-0.1
		h-0.1c-0.1,0-0.2,0-0.2,0l-0.1,0.1h-0.1l-0.2,0.1h-0.3l-0.3,0.1h-0.1l-0.1-0.1l-0.1-0.1c-0.1,0-0.1-0.1-0.2-0.1l0.2-0.1v-0.1
		L59,42.7l-0.1-0.1c-0.1-0.1-0.3-0.3-0.4-0.4L58,41.9l-0.2-0.1v-0.3l-0.2-0.3c-0.1-0.1-0.2-0.1-0.3-0.2l-0.1-0.4v-0.3l0.1-0.1
		l-0.1-0.3v-0.1l-0.3-0.3v-0.2l0.1-0.1l-0.3-0.3l-0.1-0.2l-0.1-0.2L56.3,38l-0.2-0.3l-0.2-0.2l0,0l0.2,0.5c0.1,0.1,0.1,0.2,0.2,0.2
		l0.1-0.1l0.1-0.2l0.1-0.2l0.1-0.1l0,0v0.1v0.1V38h0.1c0.1,0.2,0.2,0.3,0.3,0.5l0.1,0.2l0.1,0.1l0.1,0.2v0.1l0.1,0.2l0.2,0.1
		l0.1,0.1l0.2,0.3V40v0.2l0.2,0.3h0.1l0.2,0.2l0.1,0.2l0.1,0.2l0.1,0.1v0.1l0.1,0.1v0.1v0.1v0.1v0.1h-0.1l0.1,0.1l0.1,0.2v0.1v0.2
		l0.1,0.2h0.2h0.1h0.1v-0.1h0.1l0.1-0.1h0.1H60l0.2-0.1l0.2-0.1h0.1h0.1l0.2-0.2l0.4-0.1l0.3-0.1v-0.1l0.1-0.1l0.2-0.1h0.1l0.2-0.1
		h0.2l0.1-0.1v-0.1l0.1-0.1h0.2l0.1-0.1v-0.1l0.2-0.1h0.1l0,0v-0.2v-0.2l0.1-0.1h0.1l0.1-0.2l0.1-0.1c0-0.1,0.1-0.2,0.1-0.3v-0.1
		h-0.1c-0.1-0.1-0.1-0.2-0.2-0.3l-0.2-0.1h-0.2l-0.2-0.1l-0.1-0.2v-0.2v-0.1v-0.1l0,0l-0.1,0.1c-0.2,0.2-0.4,0.4-0.6,0.6
		c-0.1,0-0.3,0-0.4,0h-0.2v-0.1l0,0L61.2,39l0.1-0.2v-0.2l-0.1-0.1h-0.1L61,38.7v0.2v-0.1v-0.1l0,0.1v-0.1v-0.1v-0.1l-0.2-0.1v-0.1
		l-0.1-0.1c-0.1-0.2-0.1-0.3-0.2-0.5v-0.1l-0.2-0.1h0.2l0.1-0.1l0.2,0.1l0.2-0.1l0.2,0.4l0.2,0.3l0.3,0.1l0.3,0.2l0.3,0.1l0.3-0.2
		l0.2-0.1l0.1,0.1l0.1,0.4h0.3c0.3,0.1,0.6,0.1,0.8,0.2h0.4H65l0.5-0.1l0.2,0.2l0.1,0.2l0.2,0.1l0.3,0.3l0.1,0.1l-0.1,0.1l0.4,0.4
		h0.2l0.4-0.2l0.1,0.3v0.4c0.1,0.3,0.1,0.6,0.2,0.9l0.3,0.4v0.2l0.1,0.4l0.1,0.3l0.1,0.1c0.1,0.2,0.2,0.5,0.2,0.7l0.3,0.3l0.1-0.1
		l0.1-0.2l0.3-0.1l-0.1-0.1l0.1-0.2h0.1v-0.5l0.1-0.3v-0.2l-0.1-0.4l0.1-0.2h0.1l0.3-0.1l0.1-0.1v-0.1l0.3-0.2l0.2-0.2l0.3-0.3
		l0.4-0.2l0.1-0.2v-0.2l0.3-0.1h0.2v-0.1h0.1h0.1v-0.1l0.1,0.1l0.1-0.2v-0.1h0.3l0.1,0.2l0.1,0.1v0.2l0.1,0.2l0.2,0.2h0.2v0.1
		l0.2,0.3l0.1,0.3l-0.1,0.4l0.2,0.1h0.2l0.3-0.2l0.2-0.1l0.1,0.2l0.1,0.4l0.1,0.3l0.1,0.1v0.3l0.1,0.2l-0.1,0.2v0.2l-0.1,0.3v0.2
		l0.1,0.2v-0.2c0.1,0.1,0.2,0.2,0.3,0.3v0.1l0.1,0.1l0.1,0.1v0.2l0.1,0.2V45l0.2,0.2v0.1l0.3,0.2l0.3,0.2h0.2v-0.1l-0.3-0.1h-0.1
		v-0.2v-0.1v-0.1v-0.2l-0.1-0.2l-0.2-0.2h-0.1l-0.1-0.1h-0.2L75,44.2L74.9,44l-0.1-0.3h-0.2v-0.2c0.1-0.2,0.2-0.4,0.2-0.7v-0.3H75
		v0.2h0.2l0.3,0.1l0.1,0.3l0.1,0.1h0.2l0.2,0.2L76,43.6l0.1,0.2l0.3-0.3l0.2-0.2l0.3-0.2l0.2-0.2v-0.5L77,41.9l-0.2-0.2l0.1-0.2
		c-0.2-0.2-0.3-0.5-0.5-0.7l0.1-0.2l0.2-0.3l0.4-0.3h0.1l0.4,0.1l-0.1,0.1l0.1,0.2h0.2l0.1-0.3h0.3l0.4-0.2l0.2-0.1l0.1,0.1l0.2-0.1
		h0.3c0.3-0.2,0.5-0.4,0.8-0.5l0.3-0.4c0.1-0.3,0.3-0.5,0.4-0.7h0.2l0.1-0.3v-0.3L81,37.5l-0.1-0.2l0.2-0.1V37l-0.2-0.3l-0.2-0.3
		l-0.1-0.3l-0.3-0.2l0.1-0.2l0.3-0.2l0.1-0.2l0.4-0.1V35H81l-0.2-0.1l-0.3,0.3l-0.2-0.1v-0.2l-0.2-0.1l-0.4-0.3l0.1-0.2h0.3l0.2-0.2
		l0.3-0.3l0.2-0.1l0.1,0.2l-0.2,0.2l0.1,0.1l-0.1,0.2l0.3-0.1l0.2-0.2l0.4-0.1l0.1,0.1h0.2v0.1l0,0.3v0.1h-0.1l-0.1,0.2l0.1,0.1h0.1
		V35H82v-0.1l0.1,0.1l0.2,0.3l-0.2,0.1l0.1,0.4l-0.1,0.3v0.2h0.3l0.2-0.1l0.3-0.1l0.1-0.2v-0.4V35l-0.2-0.5l-0.2-0.2l-0.1-0.1l0,0
		V34l0.1-0.1l0.2-0.1l0.1-0.1v-0.1l0.1-0.1v-0.3l0.1-0.1l0.1-0.1h0.1v-0.1l0.4-0.3l0.2,0.2h0.2l0.4-0.2c0.3-0.4,0.6-0.8,0.9-1.1
		l0.1-0.3l0.4-0.6l0.1-0.7v-0.5l0.2-0.5v-0.4L86,28.2h-0.3l-0.2,0.2l-0.3-0.1L85.1,28l-0.4-0.1c0.7-0.7,1.3-1.5,2-2.2l0.9-0.2
		l0.9,0.1l0.3-0.3l0.4,0.1v0.4l0.4-0.1l0.6-0.1L90,25.3l0.7-1l0.7-0.2l0.2,0.7l0.3-0.3l0,0l0.4-0.4l0.2-0.5l0.3-0.1l-0.2,1L92.1,25
		c-0.3,0.4-0.7,0.8-1,1.2l-0.4,0.1v0.2l-0.2,0.3l-0.1,0.7c0.1,0.6,0.2,1.2,0.3,1.7l0.1,0.3l0.4-0.4l0.1-0.5l0.4-0.1l0.1-0.5l0.2-0.1
		l0,0l0.3-0.1l-0.1-0.2l0.1-0.4h0.3v-0.7l-0.3-0.1v-0.2l0.3-0.5l0.1-0.4l0.4,0.1l0.3-0.2l0.1,0.2l0.7-0.4l0.4,0.4l0.1-0.3
		c0.3-0.2,0.6-0.5,0.8-0.8l0.2-0.1l0.8-0.4l0.5,0.1l0.1-0.2v-0.3L97,23.2l-0.2-0.5l-0.3-0.3h0.4l0.3-0.3l0,0l0.1-0.1l0,0l0.1-0.2
		l-0.1-0.3l0.3-0.2l-0.1,0.3l0.2,0.2l0.3-0.1l0.3,0.1l0.1,0.3l0.4,0.2l0.2,0.2h0.3l0.1-0.1v-0.6l0.5-0.1l0.1-0.2L99.5,20.8z
		 M62,33.8l-0.3-0.1L61.6,34h0.2l-0.1,0.2l0.2,0.1v0.4l0.1,0.2V35l-0.4,0.1L61.2,35L61,34.8l-0.3-0.1l-0.1-0.3v-0.2l0.1-0.1V34v-0.3
		h0.2l-0.1-0.1h-0.1l-0.1-0.3c-0.2-0.2-0.3-0.4-0.5-0.6v-0.3L60,32.3l0.3-0.4l0.3-0.1l0.1-0.2l0.3-0.1l0.3-0.2l0.2,0.1h0.3v0.3
		l-0.1,0.4L61.5,32l-0.2,0.1v0.3H61v0.1l0.2,0.1l0.1,0.3l0.3,0.1l0.1,0.1l-0.1,0.2v0.1l0.1,0.2v-0.3l0.2-0.1l0.1,0.3l0.2,0.2
		L62,33.8z"/>
</g>
</svg>
